<svg width="20" height="20" viewBox="0 0 20 20" fill="none" xmlns="http://www.w3.org/2000/svg">
<path d="M17.3392 4.98508L12.7238 0.177385C12.6151 0.0640769 12.4648 0 12.3077 0H4.23077C3.27642 0 2.5 0.776423 2.5 1.73077V18.2692C2.5 19.2236 3.27642 20 4.23077 20H15.7692C16.7236 20 17.5 19.2236 17.5 18.2692V5.38462C17.5 5.23569 17.4424 5.0925 17.3392 4.98508ZM13.1936 16.3172C13.0809 16.4298 12.9333 16.4862 12.7857 16.4862C12.638 16.4862 12.4903 16.4298 12.3777 16.3172L11.1128 15.0523C10.6325 15.37 10.0773 15.5289 9.52208 15.5289C8.78342 15.5289 8.04473 15.2477 7.48239 14.6854C6.35765 13.5607 6.35765 11.7307 7.48239 10.606C8.60708 9.48119 10.4371 9.48123 11.5618 10.606C12.5469 11.591 12.6691 13.117 11.9287 14.2364L13.1936 15.5013C13.4189 15.7266 13.4189 16.0918 13.1936 16.3172ZM14.6154 7.11539H11.1538C10.8352 7.11539 10.5769 6.85708 10.5769 6.53846V3.07692C10.5769 2.75831 10.8352 2.5 11.1538 2.5C11.4725 2.5 11.7308 2.75831 11.7308 3.07692V5.96154H14.6154C14.934 5.96154 15.1923 6.21985 15.1923 6.53846C15.1923 6.85708 14.934 7.11539 14.6154 7.11539Z" fill="#333F49"/>
<path d="M9.52193 10.9158C9.07874 10.9158 8.63551 11.0845 8.29813 11.4219C7.62328 12.0967 7.62328 13.1947 8.29813 13.8696C8.97297 14.5444 10.0711 14.5443 10.7458 13.8696C11.4206 13.1948 11.4206 12.0967 10.7458 11.4219C10.4084 11.0845 9.9652 10.9158 9.52193 10.9158Z" fill="#333F49"/>
</svg>
