<svg width="15" height="15" viewBox="0 0 15 15" fill="none" xmlns="http://www.w3.org/2000/svg">
<path d="M7.5 0C6.01664 0 4.56659 0.439867 3.33323 1.26398C2.09986 2.08809 1.13856 3.25943 0.570907 4.62987C0.00324964 6.00032 -0.145275 7.50832 0.144114 8.96318C0.433503 10.418 1.14781 11.7544 2.1967 12.8033C3.2456 13.8522 4.58197 14.5665 6.03683 14.8559C7.49168 15.1453 8.99968 14.9968 10.3701 14.4291C11.7406 13.8614 12.9119 12.9001 13.736 11.6668C14.5601 10.4334 15 8.98336 15 7.5C15 5.51088 14.2098 3.60322 12.8033 2.1967C11.3968 0.790176 9.48913 0 7.5 0ZM9.96031 12.3312H5.03969C4.87393 12.3312 4.71496 12.2654 4.59775 12.1482C4.48054 12.031 4.41469 11.872 4.41469 11.7062C4.41469 11.5405 4.48054 11.3815 4.59775 11.2643C4.71496 11.1471 4.87393 11.0812 5.03969 11.0812H9.96031C10.1261 11.0812 10.285 11.1471 10.4023 11.2643C10.5195 11.3815 10.5853 11.5405 10.5853 11.7062C10.5853 11.872 10.5195 12.031 10.4023 12.1482C10.285 12.2654 10.1261 12.3312 9.96031 12.3312ZM10.4022 7.63L7.94 10.0937C7.8228 10.2109 7.66385 10.2767 7.49813 10.2767C7.3324 10.2767 7.17346 10.2109 7.05625 10.0937L4.59782 7.63562C4.48037 7.51843 4.4143 7.35939 4.41412 7.19347C4.41395 7.02756 4.47968 6.86838 4.59688 6.75094C4.71407 6.6335 4.87312 6.56742 5.03903 6.56724C5.20494 6.56707 5.36412 6.63281 5.48156 6.75L6.875 8.14344V2.61406C6.875 2.4483 6.94085 2.28933 7.05806 2.17212C7.17527 2.05491 7.33424 1.98906 7.5 1.98906C7.66576 1.98906 7.82473 2.05491 7.94194 2.17212C8.05915 2.28933 8.125 2.4483 8.125 2.61406V8.13969L9.51844 6.74625C9.63632 6.6324 9.79419 6.5694 9.95807 6.57083C10.1219 6.57225 10.2787 6.63798 10.3946 6.75386C10.5105 6.86974 10.5762 7.0265 10.5776 7.19037C10.579 7.35425 10.516 7.51212 10.4022 7.63Z" fill="#007A78"/>
</svg>
