<svg width="15" height="15" viewBox="0 0 15 15" fill="none" xmlns="http://www.w3.org/2000/svg">
<g clip-path="url(#clip0_429_4517)">
<path d="M7.5 0C3.35801 0 0 3.35801 0 7.5C0 11.642 3.35801 15 7.5 15C11.642 15 15 11.642 15 7.5C15 3.35801 11.642 0 7.5 0ZM11.289 6.02432L9.95742 7.36963L5.79756 11.543H3.46406V9.20918L7.60986 5.06338L8.98271 3.69141C9.13896 3.53516 9.3334 3.45703 9.56602 3.45703C9.67525 3.45441 9.78379 3.47508 9.88441 3.51767C9.98504 3.56025 10.0754 3.62377 10.1496 3.704L10.7194 4.28057L11.303 4.8709C11.455 5.02699 11.5387 5.23699 11.5359 5.45479C11.5376 5.56181 11.5164 5.66795 11.4738 5.76615C11.4312 5.86435 11.3682 5.95236 11.289 6.02432Z" fill="#007A78"/>
<path d="M8.19844 5.6416L4.2876 9.53896V10.7193H5.45449L9.37559 6.79824L8.7835 6.2167L8.19844 5.6416Z" fill="#007A78"/>
</g>
<defs>
<clipPath id="clip0_429_4517">
<rect width="15" height="15" fill="white"/>
</clipPath>
</defs>
</svg>
