<svg width="10" height="10" viewBox="0 0 10 10" fill="none" xmlns="http://www.w3.org/2000/svg">
<path d="M4.99931 0.390634C2.4536 0.390634 0.389932 2.45431 0.389932 5.00001C0.389932 7.54571 2.4536 9.60938 4.99931 9.60938C7.54501 9.60938 9.60868 7.54571 9.60868 5.00001C9.60868 2.45431 7.54501 0.390634 4.99931 0.390634ZM4.99931 9.1427e-06C5.9884 -0.000494857 6.9554 0.292445 7.77793 0.841753C8.60046 1.39106 9.24154 2.17204 9.62003 3.08585C9.99852 3.99966 10.0974 5.00521 9.90416 5.97524C9.71092 6.94527 9.23424 7.83616 8.53446 8.53516C8.01265 9.05664 7.38191 9.45619 6.68748 9.70515C5.99305 9.95412 5.25213 10.0463 4.51785 9.97519C3.78358 9.90404 3.07414 9.6713 2.44042 9.29364C1.80671 8.91598 1.26441 8.40278 0.852421 7.79082C0.440434 7.17887 0.168965 6.48333 0.0574837 5.75409C-0.053997 5.02484 -0.00273037 4.27997 0.20761 3.57288C0.417951 2.86578 0.782152 2.214 1.2741 1.66426C1.76604 1.11452 2.37353 0.680446 3.05302 0.393173C3.6687 0.132453 4.33069 -0.00127368 4.99931 9.1427e-06Z" fill="#333F49"/>
<path d="M2.74512 6.87207H6.02637C5.98117 7.02223 5.98002 7.18221 6.02305 7.33301H2.7457C2.68458 7.33301 2.62596 7.30873 2.58274 7.26551C2.53952 7.22228 2.51523 7.16366 2.51523 7.10254C2.51523 7.04141 2.53952 6.98279 2.58274 6.93957C2.62596 6.89635 2.68458 6.87207 2.7457 6.87207H2.74512Z" fill="#333F49"/>
<path d="M6.87126 4.85938C6.93125 4.86112 6.9882 4.88618 7.03001 4.92923C7.07182 4.97228 7.09521 5.02993 7.09521 5.08994C7.09521 5.14996 7.07182 5.20761 7.03001 5.25066C6.9882 5.2937 6.93125 5.31876 6.87126 5.32051H5.8195C5.86259 5.16964 5.86137 5.00957 5.81599 4.85938H6.87126Z" fill="#333F49"/>
<path d="M2.74512 4.85938H4.24902C4.20385 5.00961 4.20269 5.16964 4.2457 5.32051H2.74473C2.68474 5.31876 2.62779 5.2937 2.58598 5.25066C2.54416 5.20761 2.52077 5.14996 2.52077 5.08994C2.52077 5.02993 2.54416 4.97228 2.58598 4.92923C2.62779 4.88618 2.68474 4.86112 2.74473 4.85938H2.74512Z" fill="#333F49"/>
<path d="M6.02246 3.1167H2.74512C2.68399 3.1167 2.62537 3.09242 2.58215 3.0492C2.53893 3.00598 2.51465 2.94735 2.51465 2.88623C2.51465 2.82511 2.53893 2.76649 2.58215 2.72326C2.62537 2.68004 2.68399 2.65576 2.74512 2.65576H6.02637C5.98117 2.80592 5.98002 2.9659 6.02305 3.1167H6.02246Z" fill="#333F49"/>
<path d="M6.13491 7.1082C6.13491 6.73563 6.43694 6.43359 6.80952 6.43359C7.1821 6.43359 7.48413 6.73563 7.48413 7.1082C7.48413 7.48078 7.1821 7.78281 6.80952 7.78281C6.43694 7.78281 6.13491 7.48078 6.13491 7.1082Z" fill="#333F49"/>
<path d="M6.13491 2.89189C6.13491 2.51932 6.43694 2.21729 6.80952 2.21729C7.1821 2.21729 7.48413 2.51932 7.48413 2.89189C7.48413 3.26447 7.1821 3.5665 6.80952 3.5665C6.43694 3.5665 6.13491 3.26447 6.13491 2.89189Z" fill="#333F49"/>
<path d="M4.35854 5.09551C4.35854 4.72293 4.66058 4.4209 5.03315 4.4209C5.40573 4.4209 5.70776 4.72293 5.70776 5.09551C5.70776 5.46808 5.40573 5.77012 5.03315 5.77012C4.66058 5.77012 4.35854 5.46808 4.35854 5.09551Z" fill="#333F49"/>
</svg>
