<svg width="16" height="16" viewBox="0 0 16 16" fill="none" xmlns="http://www.w3.org/2000/svg">
<g clip-path="url(#clip0_429_3009)">
<path d="M13.9893 2.01086C12.6925 0.714111 10.9685 0 9.13464 0C7.3009 0 5.5769 0.714111 4.28015 2.01086C2.98352 3.3075 2.26941 5.03149 2.26941 6.86536C2.26941 8.54199 2.86633 10.127 3.95984 11.3773L0.137329 15.1998C-0.0457764 15.3829 -0.0457764 15.6797 0.137329 15.8627C0.228882 15.9542 0.348755 16 0.46875 16C0.588745 16 0.708618 15.9542 0.800171 15.8627L4.62268 12.0402C5.87317 13.1337 7.45801 13.7306 9.13464 13.7306C10.9685 13.7306 12.6925 13.0165 13.9891 11.7197C15.2859 10.4231 16 8.6991 16 6.86536C16 5.03149 15.2859 3.3075 13.9893 2.01086ZM13.3263 11.0569C12.2067 12.1765 10.718 12.7931 9.13464 12.7931C7.55127 12.7931 6.06274 12.1765 4.94312 11.0569C3.82349 9.93726 3.20691 8.44873 3.20691 6.86536C3.20691 5.28198 3.82349 3.79333 4.94312 2.67371C6.06274 1.55408 7.55127 0.9375 9.13464 0.9375C10.718 0.9375 12.2067 1.55408 13.3263 2.67371C14.4459 3.79333 15.0625 5.28198 15.0625 6.86536C15.0625 8.44873 14.4459 9.93726 13.3263 11.0569Z" fill="#007A78"/>
<path d="M9.13452 3.10742C7.06238 3.10742 5.37646 4.79321 5.37646 6.86548C5.37646 8.93762 7.06238 10.6235 9.13452 10.6235C11.2068 10.6235 12.8927 8.93762 12.8927 6.86548C12.8927 4.79321 11.2068 3.10742 9.13452 3.10742ZM9.60327 8.42236C9.60327 8.68127 9.39343 8.89111 9.13452 8.89111C8.87573 8.89111 8.66577 8.68127 8.66577 8.42236V6.90796C8.66577 6.64917 8.87573 6.43921 9.13452 6.43921C9.39343 6.43921 9.60327 6.64917 9.60327 6.90796V8.42236ZM9.60327 5.62097C9.60327 5.87988 9.39343 6.08972 9.13452 6.08972C8.87573 6.08972 8.66577 5.87988 8.66577 5.62097V5.30847C8.66577 5.04968 8.87573 4.83972 9.13452 4.83972C9.39343 4.83972 9.60327 5.04968 9.60327 5.30847V5.62097Z" fill="#007A78"/>
</g>
<defs>
<clipPath id="clip0_429_3009">
<rect width="16" height="16" fill="white"/>
</clipPath>
</defs>
</svg>
