<svg width="1440" height="903" viewBox="0 0 1440 903" fill="none" xmlns="http://www.w3.org/2000/svg">
<path d="M2033.09 776.467C1931.73 765.896 1829.05 737.582 1728.33 691.38C1579.39 623.063 1453.86 533.165 1323.72 447.149C1073.96 282.074 796.463 160.649 458.615 137.293C279.384 124.902 108.569 146.676 -51.5 208.026L-51.5 88.7598C-14.7343 77.7154 22.0341 66.7163 59.6992 57.9317C310.41 -0.534941 556.527 16.8176 800.102 84.6026C1103.04 168.908 1343.78 321.975 1579.06 482.572C1715.82 575.915 1865.36 653.973 2056.74 667.66C2067.61 668.438 2078.43 669.046 2089.19 669.478L2033.09 776.467Z" stroke="white"/>
<path d="M-334.787 1017.3C-243.575 952.203 -138.37 900.769 -21.7486 865.489C150.672 813.331 319.515 795.986 489.323 772.089C815.206 726.227 1132.17 624.222 1427.49 397.521C1584.18 277.24 1709.06 134.944 1796.28 -32.1283L1883.14 66.1785C1860.89 102.049 1838.6 137.887 1813.95 172.552C1649.95 403.222 1434.56 568.1 1184.56 689.592C873.638 840.69 563.904 889.883 253.197 928.898C72.6083 951.575 -107.388 996.151 -274.996 1124.19C-284.542 1131.48 -293.917 1138.87 -303.113 1146.36L-334.787 1017.3Z" stroke="white"/>
<g filter="url(#filter0_d_57_408)">
<path d="M-117.694 813.305C-235.432 802.007 -331.402 709.919 -349.824 591.37C-377.432 413.689 -296.266 262.748 -129.394 178.69C-46.5019 136.935 41.8647 113.793 129.403 87.1094C297.4 35.9004 448.589 -44.1283 561.351 -188.019C621.095 -264.256 658.85 -349.42 670.841 -444.468L738.815 -400.202C734.339 -379.527 729.836 -358.879 723.809 -338.653C683.595 -203.719 601.334 -99.116 490.933 -14.4495C353.623 90.8514 195.218 142.453 34.0638 188.79C-59.6141 215.727 -148.355 254.155 -212.518 335.526C-264.387 401.304 -293.314 474.699 -281.83 558.191C-263.83 689.053 -140.193 771.166 -8.57975 743.631C75.1064 726.125 136.644 674.426 191.372 611.712C277.922 512.532 340.039 396.416 411.972 287.33C487.518 172.759 580.642 81.5642 710.411 35.4528C840.495 -10.7708 971.501 -11.2867 1102.43 17.0709C1110.48 18.8132 1117.4 19.5965 1123.85 18.2577C1130.33 16.9152 1136.28 13.4511 1142.43 6.80387C1171.57 -24.7151 1207.27 -47.7624 1241.63 -72.7506L1297.2 -36.5652C1270.73 -18.3889 1243.72 -0.870035 1220.08 21.4352C1218.44 22.974 1216.46 24.5985 1214.39 26.2588C1212.33 27.9142 1210.19 29.6054 1208.28 31.2621C1206.38 32.9168 1204.68 34.5589 1203.49 36.1235C1202.32 37.6711 1201.58 39.2396 1201.78 40.7241C1202.5 46.0815 1206.43 48.7396 1211.13 50.4827C1213.47 51.3545 1216.05 52.0139 1218.57 52.6662C1221.1 53.3216 1223.57 53.9702 1225.75 54.8254C1343.95 101.211 1451.17 164.59 1535.36 261.339C1721.57 475.315 1648.71 812.306 1390.9 933.244C1220.37 1013.24 1030.57 944.514 961.835 770.134C868.496 533.363 903.015 307.575 1058.36 97.0644C1059.6 95.3874 1061.46 93.6221 1063.28 91.8024C1065.07 90.0117 1066.83 88.1587 1067.75 86.3665C1068.22 85.4625 1068.49 84.5339 1068.41 83.609C1068.34 82.6707 1067.91 81.7935 1067.09 80.9978C1065.47 79.4405 1062.29 78.1494 1056.94 77.1394C903.917 48.2212 755.002 55.5933 619.53 153.084C548.047 204.526 497.915 276.52 450.798 349.978C389.692 445.245 334.27 544.254 262.322 632.067C162.518 753.882 41.707 828.601 -117.694 813.305ZM1042.77 772.313C1111.7 889.527 1245.38 932.301 1364.3 878.015C1433.94 846.226 1485.07 792.722 1522.68 726.818C1579.76 626.79 1596.48 523.374 1550.95 416.363C1510.57 321.469 1438.93 256.605 1363.64 206.224L1363.64 206.223L1363.63 206.217C1294.44 162.251 1229.18 129.424 1159.73 104.495C1151.91 101.689 1145.7 101.189 1140.25 102.992C1134.81 104.793 1130.21 108.865 1125.57 115.01C1081.16 173.762 1039 234.128 1014.5 304.232C957.8 466.468 955.874 624.524 1042.77 772.313Z" stroke="white" shape-rendering="crispEdges"/>
</g>
<defs>
<filter id="filter0_d_57_408" x="-369.027" y="-451.722" width="2022.41" height="1439.03" filterUnits="userSpaceOnUse" color-interpolation-filters="sRGB">
<feFlood flood-opacity="0" result="BackgroundImageFix"/>
<feColorMatrix in="SourceAlpha" type="matrix" values="0 0 0 0 0 0 0 0 0 0 0 0 0 0 0 0 0 0 127 0" result="hardAlpha"/>
<feOffset dy="7"/>
<feGaussianBlur stdDeviation="6.7"/>
<feComposite in2="hardAlpha" operator="out"/>
<feColorMatrix type="matrix" values="0 0 0 0 0 0 0 0 0 0 0 0 0 0 0 0 0 0 0.2 0"/>
<feBlend mode="normal" in2="BackgroundImageFix" result="effect1_dropShadow_57_408"/>
<feBlend mode="normal" in="SourceGraphic" in2="effect1_dropShadow_57_408" result="shape"/>
</filter>
</defs>
</svg>
