<svg width="20" height="63" viewBox="0 0 20 63" fill="none" xmlns="http://www.w3.org/2000/svg">
<path d="M19.9401 11.4938C19.9401 11.9184 19.8365 12.2689 19.6291 12.5453C19.4197 12.8218 19.1304 13.0153 18.7614 13.1259C18.3902 13.2364 17.9631 13.2532 17.48 13.1762C16.9989 13.0992 16.5718 12.9472 16.1986 12.7201C15.8233 12.493 15.5299 12.2126 15.3184 11.8789C15.1048 11.5452 14.998 11.1828 14.998 10.7918C14.998 10.545 15.0457 10.314 15.1411 10.0987C15.2344 9.8835 15.3785 9.70085 15.5734 9.55077C15.7663 9.39873 16.0099 9.29308 16.3043 9.23385C16.5967 9.17461 16.943 9.17658 17.3431 9.23977L17.6168 9.28124L17.6168 12.8356L17.1285 12.7615L17.1285 9.7433C16.8217 9.69394 16.5459 9.70776 16.3012 9.78477C16.0566 9.86178 15.8627 9.99309 15.7196 10.1787C15.5745 10.3624 15.5019 10.5904 15.5019 10.8629C15.5019 11.1413 15.5838 11.405 15.7476 11.6538C15.9114 11.9006 16.125 12.1099 16.3883 12.2817C16.6496 12.4515 16.9284 12.5611 17.2249 12.6105L17.5919 12.6697C17.9963 12.7329 18.3353 12.725 18.609 12.646C18.8806 12.567 19.0859 12.4239 19.2248 12.2165C19.3637 12.0092 19.4332 11.7436 19.4332 11.4198C19.4332 11.2026 19.3979 11.0061 19.3274 10.8303C19.2569 10.6546 19.1626 10.5016 19.0444 10.3712C18.9241 10.2409 18.7925 10.1363 18.6494 10.0573L18.8205 9.58632C19.0216 9.68703 19.2072 9.8292 19.3772 10.0128C19.5472 10.1945 19.6841 10.4107 19.7877 10.6615C19.8893 10.9103 19.9401 11.1877 19.9401 11.4938Z" fill="#007A78"/>
<path d="M19.9401 16.1707C19.9401 16.5814 19.8334 16.9201 19.6198 17.1867C19.4062 17.4532 19.1139 17.6398 18.7427 17.7465C18.3695 17.8511 17.9465 17.8659 17.4738 17.7909C16.9927 17.7159 16.5666 17.5648 16.1955 17.3377C15.8222 17.1106 15.5299 16.8302 15.3184 16.4965C15.1048 16.1608 14.998 15.7945 14.998 15.3976C14.998 15.0916 15.0603 14.825 15.1847 14.5979C15.307 14.3708 15.4801 14.1951 15.7041 14.0707C15.9259 13.9463 16.1851 13.887 16.4816 13.893L16.4816 14.4261C16.2058 14.4399 15.9736 14.5357 15.7849 14.7134C15.5962 14.8892 15.5019 15.138 15.5019 15.4598C15.5019 15.754 15.5848 16.0265 15.7507 16.2773C15.9145 16.5281 16.1436 16.7404 16.4381 16.9142C16.7304 17.0859 17.0694 17.2015 17.4551 17.2607C17.8428 17.3239 18.186 17.318 18.4846 17.2429C18.7811 17.1679 19.0133 17.0336 19.1812 16.8401C19.3492 16.6446 19.4332 16.3978 19.4332 16.0996C19.4332 15.8962 19.3938 15.7047 19.315 15.525C19.2341 15.3453 19.1201 15.1863 18.9729 15.0481C18.8236 14.9099 18.6484 14.8042 18.4472 14.7312L18.4472 14.198C18.7375 14.2869 18.9946 14.4271 19.2186 14.6186C19.4425 14.8082 19.6187 15.0353 19.7473 15.2999C19.8759 15.5645 19.9401 15.8548 19.9401 16.1707Z" fill="#007A78"/>
<path d="M19.8414 19.8682L15.0641 19.1099L15.0641 18.5797L19.8414 19.338L19.8414 19.8682ZM14.2337 18.6538C14.2337 18.7643 14.1943 18.8581 14.1155 18.9351C14.0367 19.0102 13.9414 19.0467 13.8294 19.0447C13.7236 19.0408 13.6324 19.0003 13.5557 18.9233C13.4769 18.8443 13.4375 18.7515 13.4375 18.6449C13.4375 18.5343 13.4779 18.4405 13.5588 18.3635C13.6376 18.2865 13.733 18.2499 13.8449 18.2539C13.9507 18.2559 14.0419 18.2964 14.1186 18.3753C14.1954 18.4543 14.2337 18.5471 14.2337 18.6538Z" fill="#007A78"/>
<path d="M15.0635 20.1676L19.8407 22.5875L19.8407 23.1503L15.0635 24.0537L15.0635 23.5057L19.1098 22.7949L19.1098 22.7564L15.0635 20.763L15.0635 20.1676Z" fill="#007A78"/>
<path d="M19.841 27.5605L15.0637 26.8023L15.0637 26.2899L15.7977 26.4083L15.7977 26.3698C15.5572 26.2435 15.3633 26.0549 15.2161 25.8041C15.0668 25.5514 14.9922 25.2818 14.9922 24.9955C14.9922 24.952 14.9932 24.9037 14.9953 24.8504C14.9953 24.797 14.9974 24.7526 15.0015 24.7171L15.5645 24.8089C15.5603 24.8326 15.5541 24.8741 15.5458 24.9333C15.5375 24.9906 15.5334 25.0547 15.5334 25.1258C15.5334 25.3628 15.5862 25.582 15.692 25.7834C15.7956 25.9828 15.9398 26.1507 16.1243 26.2869C16.3088 26.4212 16.5193 26.5081 16.7557 26.5476L19.841 27.0333L19.841 27.5605Z" fill="#007A78"/>
<path d="M19.9401 30.568C19.9401 30.9926 19.8365 31.3431 19.6291 31.6195C19.4197 31.896 19.1304 32.0895 18.7614 32.2001C18.3902 32.3107 17.9631 32.3274 17.48 32.2504C16.9989 32.1734 16.5718 32.0214 16.1986 31.7943C15.8233 31.5672 15.5299 31.2868 15.3184 30.9531C15.1048 30.6194 14.998 30.257 14.998 29.8661C14.998 29.6192 15.0457 29.3882 15.1411 29.173C15.2344 28.9577 15.3785 28.7751 15.5734 28.625C15.7663 28.4729 16.0099 28.3673 16.3043 28.3081C16.5967 28.2488 16.943 28.2508 17.3431 28.314L17.6168 28.3555L17.6168 31.9098L17.1285 31.8358L17.1285 28.8175C16.8217 28.7682 16.5459 28.782 16.3012 28.859C16.0566 28.936 15.8627 29.0673 15.7196 29.2529C15.5745 29.4366 15.5019 29.6646 15.5019 29.9371C15.5019 30.2156 15.5838 30.4792 15.7476 30.728C15.9114 30.9748 16.125 31.1841 16.3883 31.3559C16.6496 31.5257 16.9284 31.6353 17.2249 31.6847L17.5919 31.7439C17.9963 31.8071 18.3353 31.7992 18.609 31.7202C18.8806 31.6413 19.0859 31.4981 19.2248 31.2908C19.3637 31.0834 19.4332 30.8178 19.4332 30.494C19.4332 30.2768 19.3979 30.0803 19.3274 29.9046C19.2569 29.7288 19.1626 29.5758 19.0444 29.4455C18.9241 29.3151 18.7925 29.2105 18.6494 29.1315L18.8205 28.6605C19.0216 28.7612 19.2072 28.9034 19.3772 29.0871C19.5472 29.2687 19.6841 29.4849 19.7877 29.7357C19.8893 29.9845 19.9401 30.262 19.9401 30.568Z" fill="#007A78"/>
<path d="M16.1115 33.0369L16.2483 33.5434C16.1053 33.5691 15.9767 33.6165 15.8627 33.6856C15.7466 33.7527 15.6553 33.8505 15.589 33.9788C15.5206 34.1052 15.4864 34.2711 15.4864 34.4765C15.4864 34.7845 15.5651 35.0501 15.7227 35.2732C15.8782 35.4964 16.0773 35.6267 16.3199 35.6642C16.5231 35.6958 16.6879 35.6553 16.8144 35.5428C16.9409 35.4282 17.0404 35.2367 17.113 34.9681L17.2903 34.3047C17.3898 33.9374 17.5453 33.6757 17.7568 33.5197C17.9683 33.3618 18.2358 33.3075 18.5592 33.3568C18.8288 33.4003 19.0672 33.5099 19.2745 33.6856C19.4819 33.8594 19.6447 34.0825 19.7629 34.355C19.881 34.6255 19.9401 34.9277 19.9401 35.2614C19.9401 35.7096 19.8344 36.0621 19.6229 36.3188C19.4114 36.5735 19.1066 36.7098 18.7085 36.7275L18.5841 36.1973C18.8661 36.1816 19.0796 36.0897 19.2248 35.9219C19.3699 35.7521 19.4425 35.5131 19.4425 35.2051C19.4425 34.8536 19.3585 34.5584 19.1906 34.3195C19.0226 34.0805 18.8153 33.9433 18.5685 33.9078C18.3736 33.8742 18.2119 33.9087 18.0834 34.0114C17.9548 34.1121 17.8594 34.2839 17.7972 34.5268L17.6106 35.2347C17.509 35.6158 17.3504 35.8854 17.1348 36.0433C16.917 36.1993 16.6485 36.2517 16.3292 36.2003C16.0659 36.1588 15.8347 36.0542 15.6356 35.8863C15.4366 35.7185 15.2811 35.5062 15.1691 35.2495C15.0551 34.9928 14.998 34.7124 14.998 34.4083C14.998 33.9897 15.0976 33.6708 15.2966 33.4516C15.4936 33.2324 15.7652 33.0942 16.1115 33.0369Z" fill="#007A78"/>
<path d="M15.0637 39.279L15.5457 39.356L15.5457 41.5894L15.0637 41.5153L15.0637 39.279ZM19.8409 41.5745L14.3639 40.7067C14.1068 40.6672 13.8901 40.5774 13.7138 40.4372C13.5376 40.295 13.4039 40.1252 13.3126 39.9277C13.2214 39.7302 13.1758 39.5278 13.1758 39.3205C13.1758 39.1823 13.1882 39.0697 13.2131 38.9828C13.2359 38.8959 13.2587 38.8278 13.2815 38.7785L13.7667 39.0036C13.7543 39.0431 13.7398 39.0905 13.7232 39.1457C13.7066 39.1991 13.6983 39.2692 13.6983 39.356C13.6983 39.5851 13.7657 39.7727 13.9005 39.9188C14.0352 40.0649 14.2281 40.1587 14.4789 40.2002L19.8409 41.0473L19.8409 41.5745Z" fill="#007A78"/>
<path d="M13.4707 42.3309L19.8404 43.338L19.8404 43.8652L13.4707 42.8582L13.4707 42.3309Z" fill="#007A78"/>
<path d="M19.9401 46.8727C19.9401 47.2973 19.8365 47.6478 19.6291 47.9242C19.4197 48.2007 19.1304 48.3942 18.7614 48.5048C18.3902 48.6153 17.9631 48.6321 17.48 48.5551C16.9989 48.4781 16.5718 48.3261 16.1986 48.099C15.8233 47.8719 15.5299 47.5915 15.3184 47.2578C15.1048 46.9241 14.998 46.5617 14.998 46.1707C14.998 45.9239 15.0457 45.6929 15.1411 45.4776C15.2344 45.2624 15.3785 45.0798 15.5734 44.9297C15.7663 44.7776 16.0099 44.672 16.3043 44.6128C16.5967 44.5535 16.943 44.5555 17.3431 44.6187L17.6168 44.6601L17.6168 48.2145L17.1285 48.1404L17.1285 45.1222C16.8217 45.0728 16.5459 45.0867 16.3012 45.1637C16.0566 45.2407 15.8627 45.372 15.7196 45.5576C15.5745 45.7413 15.5019 45.9693 15.5019 46.2418C15.5019 46.5203 15.5838 46.7839 15.7476 47.0327C15.9114 47.2795 16.125 47.4888 16.3883 47.6606C16.6496 47.8304 16.9284 47.94 17.2249 47.9894L17.5919 48.0486C17.9963 48.1118 18.3353 48.1039 18.609 48.0249C18.8806 47.9459 19.0859 47.8028 19.2248 47.5954C19.3637 47.3881 19.4332 47.1225 19.4332 46.7987C19.4332 46.5815 19.3979 46.385 19.3274 46.2092C19.2569 46.0335 19.1626 45.8805 19.0444 45.7501C18.9241 45.6198 18.7925 45.5152 18.6494 45.4362L18.8205 44.9652C19.0216 45.0659 19.2072 45.2081 19.3772 45.3917C19.5472 45.5734 19.6841 45.7896 19.7877 46.0404C19.8893 46.2892 19.9401 46.5667 19.9401 46.8727Z" fill="#007A78"/>
<path d="M15.0977 49.8178C14.7245 49.8039 14.4321 49.9096 14.2206 50.1347C14.0091 50.3578 13.9034 50.6708 13.9034 51.0736C13.9034 51.354 13.9552 51.6107 14.0589 51.8437C14.1605 52.0748 14.3004 52.2653 14.4788 52.4154C14.6571 52.5635 14.8603 52.6553 15.0883 52.6909C15.2563 52.7165 15.4035 52.7047 15.53 52.6553C15.6544 52.6059 15.7622 52.5299 15.8534 52.4272C15.9447 52.3246 16.0224 52.2071 16.0867 52.0748C16.151 51.9405 16.2049 51.8042 16.2484 51.666L16.4413 51.0529C16.4973 50.8712 16.5688 50.6905 16.6559 50.5109C16.743 50.3312 16.8518 50.1712 16.9824 50.031C17.1131 49.8908 17.2738 49.7872 17.4645 49.72C17.6553 49.6509 17.8834 49.6371 18.1488 49.6785C18.493 49.7338 18.8009 49.8661 19.0725 50.0754C19.342 50.2828 19.5556 50.5553 19.7132 50.8929C19.8708 51.2306 19.9496 51.6206 19.9496 52.0629C19.9496 52.4756 19.878 52.8232 19.735 53.1055C19.5898 53.3879 19.3897 53.5962 19.1347 53.7305C18.8797 53.8648 18.5842 53.9161 18.2483 53.8845L18.2483 53.3158C18.4992 53.3376 18.7117 53.2931 18.8859 53.1825C19.06 53.07 19.1927 52.91 19.284 52.7027C19.3731 52.4934 19.4177 52.2525 19.4177 51.98C19.4177 51.6779 19.3648 51.4004 19.2591 51.1477C19.1513 50.8949 19.002 50.6866 18.8112 50.5227C18.6184 50.3568 18.3945 50.2542 18.1394 50.2147C17.9238 50.1791 17.7424 50.2038 17.5952 50.2887C17.4479 50.3716 17.3246 50.501 17.225 50.6767C17.1234 50.8505 17.0343 51.0578 16.9576 51.2987L16.7336 51.9918C16.5885 52.444 16.3843 52.7807 16.1209 53.0019C15.8576 53.221 15.5217 53.299 15.1132 53.2359C14.769 53.1806 14.4673 53.0453 14.2082 52.8301C13.9469 52.6129 13.7437 52.3433 13.5986 52.0215C13.4534 51.6996 13.3809 51.3521 13.3809 50.9788C13.3809 50.6017 13.4545 50.2808 13.6017 50.0162C13.7489 49.7496 13.9521 49.5522 14.2113 49.4238C14.4684 49.2935 14.7639 49.2451 15.0977 49.2787L15.0977 49.8178Z" fill="#007A78"/>
<path d="M11.2601 4.63074C11.2601 4.85883 11.2411 5.07397 11.203 5.27615C11.1676 5.47833 11.12 5.65199 11.0601 5.79715L9.61077 5.37724C9.67609 5.19061 9.7142 5.02213 9.72509 4.8718C9.73597 4.71887 9.7101 4.58797 9.6475 4.47911C9.58763 4.36765 9.48013 4.28211 9.32499 4.2225L9.13718 4.14863L2.6377 6.27149L2.6377 4.28081L7.11222 3.18051L7.11222 3.1183L2.6377 2.00244L2.6377 0.000103392L9.5087 2.25127C9.85164 2.36014 10.1538 2.51435 10.415 2.71394C10.6791 2.91093 10.8859 3.16625 11.0356 3.47988C11.1853 3.79093 11.2601 4.17454 11.2601 4.63074Z" fill="#007A78"/>
<path d="M9.01432 10.3373C9.01432 10.7184 8.94764 11.0566 8.81428 11.3521C8.67819 11.645 8.47406 11.877 8.20189 12.0481C7.92699 12.2165 7.58269 12.3008 7.16899 12.3008C6.82061 12.3008 6.52666 12.2425 6.28715 12.1258C6.04764 12.0092 5.85304 11.8485 5.70334 11.6437C5.55365 11.4389 5.44069 11.2031 5.36448 10.9361C5.28555 10.6691 5.23249 10.384 5.20527 10.0807C5.17261 9.74117 5.13858 9.46771 5.1032 9.26035C5.0651 9.05299 5.01202 8.90265 4.94397 8.80934C4.87321 8.71343 4.77387 8.66548 4.64594 8.66548L4.62554 8.66548C4.41596 8.66548 4.25401 8.73417 4.1397 8.87154C4.02539 9.00892 3.96824 9.19425 3.96824 9.42753C3.96824 9.67896 4.02539 9.88113 4.1397 10.0341C4.25401 10.187 4.41188 10.2842 4.61329 10.3257L4.54797 12.0792C4.16693 12.0273 3.82671 11.8938 3.52732 11.6787C3.22521 11.461 2.98842 11.1629 2.81695 10.7845C2.64276 10.4034 2.55567 9.94594 2.55567 9.41198C2.55567 9.03095 2.60329 8.67974 2.69855 8.35833C2.79109 8.03692 2.92717 7.75698 3.1068 7.51851C3.28372 7.28005 3.50146 7.09601 3.76002 6.96641C4.01859 6.83422 4.31389 6.76812 4.64594 6.76812L8.90817 6.76812L8.90817 8.55662L8.0345 8.55662L8.0345 8.60327C8.2468 8.70954 8.42643 8.84562 8.57341 9.01151C8.72038 9.17481 8.83061 9.36792 8.90409 9.59083C8.97758 9.81115 9.01432 10.06 9.01432 10.3373ZM7.70789 9.75024C7.70789 9.54547 7.66434 9.36144 7.57725 9.19814C7.49015 9.03225 7.3704 8.90006 7.21798 8.80156C7.06284 8.70307 6.88321 8.65382 6.67908 8.65382L6.08302 8.65382C6.11296 8.70825 6.14018 8.77435 6.16468 8.85211C6.18917 8.92727 6.2123 9.01022 6.23407 9.10094C6.25584 9.19166 6.2749 9.28497 6.29123 9.38088C6.30756 9.47678 6.32253 9.5688 6.33614 9.65693C6.36608 9.83578 6.41234 9.9887 6.47494 10.1157C6.53754 10.2401 6.6192 10.336 6.71991 10.4034C6.81789 10.4682 6.93492 10.5006 7.071 10.5006C7.27785 10.5006 7.43572 10.4306 7.54459 10.2907C7.65346 10.1481 7.70789 9.96797 7.70789 9.75024Z" fill="#007A78"/>
<path d="M8.90856 20.3432L2.6377 21.8984L2.6377 19.9894L6.65496 19.1846L6.65496 19.1341L2.6377 18.2709L2.6377 16.4085L6.6264 15.5221L6.6264 15.4715L2.6377 14.69L2.6377 12.781L8.90856 14.3401L8.90856 16.3736L5.25464 17.3067L5.25464 17.3728L8.90856 18.3059L8.90856 20.3432Z" fill="#007A78"/>
<path d="M9.02657 25.1548C9.02657 25.7795 8.89729 26.3186 8.63872 26.7722C8.37744 27.2232 8.00593 27.5705 7.52418 27.8142C7.03971 28.0553 6.46406 28.1758 5.79724 28.1758C5.14946 28.1758 4.58335 28.054 4.09888 27.8103C3.6117 27.5667 3.23337 27.2232 2.96392 26.78C2.69175 26.3367 2.55567 25.8145 2.55567 25.2131C2.55567 24.788 2.62507 24.3992 2.76388 24.0467C2.90269 23.6942 3.10818 23.3896 3.38035 23.133C3.65252 22.8764 3.98865 22.6768 4.38874 22.5343C4.78612 22.3917 5.242 22.3204 5.75641 22.3204L6.25449 22.3204L6.25449 27.5109L5.09503 27.5109L5.09503 24.0895C4.88273 24.0921 4.69357 24.14 4.52755 24.2333C4.36152 24.3266 4.23224 24.4549 4.1397 24.6182C4.04444 24.7789 3.99682 24.9643 3.99682 25.1742C3.99682 25.3868 4.04717 25.5773 4.14787 25.7458C4.24585 25.9142 4.38058 26.0477 4.55205 26.1462C4.7208 26.2447 4.91267 26.2966 5.12769 26.3018L6.30756 26.3018C6.5634 26.3018 6.78794 26.2538 6.98119 26.1579C7.17171 26.062 7.32005 25.9259 7.42619 25.7497C7.53234 25.5734 7.58542 25.3634 7.58542 25.1198C7.58542 24.9513 7.56092 24.7984 7.51193 24.661C7.46294 24.5236 7.39081 24.4057 7.29555 24.3072C7.20029 24.2087 7.08326 24.1348 6.94445 24.0856L6.99751 22.3399C7.4085 22.4124 7.76641 22.5718 8.07124 22.8181C8.37335 23.0617 8.60878 23.3818 8.77753 23.7784C8.94355 24.175 9.02657 24.6338 9.02657 25.1548Z" fill="#007A78"/>
<path d="M2.63716 28.9L4.10689 28.9L4.10689 32.6675L2.63716 32.6675L2.63716 28.9ZM1.13477 31.8782L1.13477 29.977L6.93612 29.977C7.0586 29.977 7.15794 29.9588 7.23415 29.9225C7.30764 29.8837 7.36072 29.8279 7.39338 29.7554C7.42332 29.6828 7.43829 29.5959 7.43829 29.4949C7.43829 29.4223 7.43147 29.3458 7.41787 29.2655C7.40153 29.1825 7.38794 29.1203 7.37705 29.0788L8.8182 28.7911C8.84542 28.8818 8.87944 29.0101 8.92027 29.176C8.96109 29.3393 8.98695 29.535 8.99783 29.7631C9.01961 30.209 8.96517 30.5913 8.83453 30.9101C8.70117 31.2263 8.49432 31.4687 8.21398 31.6372C7.93364 31.803 7.58118 31.8834 7.15659 31.8782L1.13477 31.8782Z" fill="#007A78"/>
<path d="M9.01432 36.9799C9.01432 37.3609 8.94764 37.6992 8.81428 37.9947C8.67819 38.2876 8.47406 38.5196 8.20189 38.6906C7.92699 38.8591 7.58269 38.9434 7.16899 38.9434C6.82061 38.9434 6.52666 38.885 6.28715 38.7684C6.04764 38.6518 5.85304 38.4911 5.70334 38.2863C5.55365 38.0815 5.44069 37.8456 5.36448 37.5787C5.28555 37.3117 5.23249 37.0266 5.20527 36.7233C5.17261 36.3837 5.13858 36.1103 5.1032 35.9029C5.0651 35.6956 5.01202 35.5452 4.94397 35.4519C4.87321 35.356 4.77387 35.3081 4.64594 35.3081L4.62554 35.3081C4.41596 35.3081 4.25401 35.3767 4.1397 35.5141C4.02539 35.6515 3.96824 35.8368 3.96824 36.0701C3.96824 36.3215 4.02539 36.5237 4.1397 36.6766C4.25401 36.8296 4.41188 36.9268 4.61329 36.9682L4.54797 38.7217C4.16693 38.6699 3.82671 38.5364 3.52732 38.3213C3.22521 38.1035 2.98842 37.8055 2.81695 37.427C2.64276 37.046 2.55567 36.5885 2.55567 36.0546C2.55567 35.6735 2.60329 35.3223 2.69855 35.0009C2.79109 34.6795 2.92717 34.3996 3.1068 34.1611C3.28372 33.9226 3.50146 33.7386 3.76002 33.609C4.01859 33.4768 4.31389 33.4107 4.64594 33.4107L8.90817 33.4107L8.90817 35.1992L8.0345 35.1992L8.0345 35.2458C8.2468 35.3521 8.42643 35.4882 8.57341 35.6541C8.72038 35.8174 8.83061 36.0105 8.90409 36.2334C8.97758 36.4537 9.01432 36.7026 9.01432 36.9799ZM7.70789 36.3928C7.70789 36.188 7.66434 36.004 7.57725 35.8407C7.49015 35.6748 7.3704 35.5426 7.21798 35.4441C7.06284 35.3456 6.88321 35.2964 6.67908 35.2964L6.08302 35.2964C6.11296 35.3508 6.14018 35.4169 6.16468 35.4947C6.18917 35.5699 6.2123 35.6528 6.23407 35.7435C6.25584 35.8342 6.2749 35.9275 6.29123 36.0235C6.30756 36.1194 6.32253 36.2114 6.33614 36.2995C6.36608 36.4784 6.41234 36.6313 6.47494 36.7583C6.53754 36.8827 6.6192 36.9786 6.71991 37.046C6.81789 37.1108 6.93492 37.1432 7.071 37.1432C7.27785 37.1432 7.43572 37.0732 7.54459 36.9333C7.65346 36.7907 7.70789 36.6105 7.70789 36.3928Z" fill="#007A78"/>
<path d="M3.27818 41.8149C3.10672 41.859 2.95566 41.9238 2.82502 42.0093C2.69166 42.0949 2.5787 42.1998 2.48616 42.3243C2.39362 42.4487 2.32422 42.5912 2.27795 42.7519C2.22896 42.9127 2.20446 43.0889 2.20446 43.2807C2.20446 43.6669 2.30245 44.0013 2.49841 44.2838C2.69438 44.5638 2.98015 44.7802 3.35575 44.9331C3.72863 45.0861 4.1818 45.1625 4.71526 45.1625C5.25144 45.1625 5.70869 45.0887 6.08701 44.9409C6.46533 44.7932 6.75382 44.5793 6.95251 44.2994C7.1512 44.0194 7.25054 43.6799 7.25054 43.2807C7.25054 42.9282 7.19066 42.6301 7.07091 42.3865C6.94843 42.1402 6.77561 41.9536 6.55243 41.8266C6.32925 41.6996 6.06659 41.6361 5.76448 41.6361L5.80939 41.2784L5.80939 43.2146L4.33558 43.2146L4.33558 39.7815L5.44195 39.7815C6.19042 39.7815 6.8314 39.9331 7.36486 40.2364C7.89832 40.5371 8.30794 40.9518 8.59372 41.4806C8.8795 42.0067 9.02239 42.612 9.02239 43.2963C9.02239 44.0557 8.84956 44.7232 8.5039 45.2986C8.15824 45.874 7.6656 46.3225 7.026 46.6439C6.38367 46.9653 5.6216 47.126 4.73976 47.126C4.05388 47.126 3.44557 47.0288 2.91484 46.8344C2.38138 46.64 1.92957 46.3691 1.55941 46.0218C1.18926 45.6719 0.908921 45.2675 0.7184 44.8087C0.527879 44.3473 0.43262 43.851 0.43262 43.3196C0.43262 42.8582 0.502025 42.4292 0.640833 42.0327C0.779641 41.6335 0.975602 41.281 1.22872 40.9751C1.48184 40.6667 1.78259 40.4165 2.13097 40.2247C2.47935 40.0329 2.86176 39.9137 3.27818 39.867L3.27818 41.8149Z" fill="#007A78"/>
<path d="M4.75586 48.4235L6.29499 48.4235L6.29499 52.1094L4.75586 52.1094L4.75586 48.4235Z" fill="#007A78"/>
<path d="M8.90822 55.3478L2.63735 55.3478L2.63735 53.4465L8.90822 53.4465L8.90822 55.3478ZM1.90657 54.3952C1.90657 54.6622 1.81404 54.8916 1.62896 55.0834C1.44116 55.2752 1.21525 55.3711 0.951239 55.3711C0.689953 55.3711 0.466781 55.2752 0.281704 55.0834C0.0939048 54.8916 2.72283e-06 54.6622 2.71116e-06 54.3952C2.69938e-06 54.1256 0.0939047 53.8962 0.281704 53.707C0.466781 53.5152 0.689953 53.4193 0.951239 53.4193C1.21525 53.4193 1.44116 53.5152 1.62896 53.707C1.81404 53.8962 1.90657 54.1256 1.90657 54.3952Z" fill="#007A78"/>
<path d="M2.18808 63L0.546878 63L0.546877 56.2698L2.18808 56.2698L2.18808 58.6843L8.90803 58.6843L8.90803 60.5816L2.18808 60.5816L2.18808 63Z" fill="#007A78"/>
</svg>
