<svg width="18" height="18" viewBox="0 0 18 18" fill="none" xmlns="http://www.w3.org/2000/svg">
<path d="M17.4058 17.565C17.1805 17.7168 16.9186 17.7954 16.6533 17.7954C16.5286 17.7954 16.4032 17.778 16.2805 17.743L12.1428 16.569H6.57257C6.50835 16.569 6.45597 16.5167 6.45597 16.4527V12.4142C6.45597 12.0191 6.13472 11.6987 5.73848 11.6987C5.34225 11.6987 5.021 12.0191 5.021 12.4142V16.4527C5.021 17.3058 5.71696 17.9998 6.57257 17.9998H16.4488C17.2554 17.9998 17.9344 17.372 17.9948 16.5706C17.995 16.5679 17.9944 16.5654 17.9946 16.5627C17.9943 16.5668 17.9945 16.5711 17.9941 16.575C17.9518 16.986 17.7378 17.3414 17.4058 17.565Z" fill="white"/>
<path d="M10.8561 14.7161V2.5414C10.8561 2.53997 10.8557 2.53854 10.8557 2.53711V14.7162L16.5653 16.3361V16.336L10.8561 14.7161Z" fill="white"/>
<path d="M6.57257 1.82617C5.71696 1.82617 5.021 2.52013 5.021 3.37327V7.41182C5.021 7.80691 5.34225 8.12724 5.73848 8.12724C6.13472 8.12724 6.45597 7.80691 6.45597 7.41182V3.37327C6.45597 3.30924 6.50817 3.25701 6.57257 3.25701H9.42064V1.82617H6.57257Z" fill="white"/>
<path d="M6.82404 10.6285C7.22027 10.6285 7.54153 10.3082 7.54153 9.9131C7.54153 9.51801 7.22027 9.19768 6.82404 9.19768H3.73076V7.52431C3.73076 7.31219 3.60556 7.1201 3.4113 7.03407C3.21704 6.94804 2.98996 6.98381 2.83211 7.126L0.177579 9.51479C0.0645743 9.61656 0 9.76125 0 9.9131C0 10.0649 0.0645743 10.2096 0.177579 10.3114L2.83211 12.7002C2.93292 12.7909 3.06206 12.8385 3.19265 12.8385C3.26655 12.8385 3.34099 12.8232 3.41112 12.7921C3.60538 12.7061 3.73058 12.5138 3.73058 12.3019V10.6285H6.82404Z" fill="white"/>
<path d="M18 3.01713C18 2.41868 17.5977 1.8864 17.0216 1.72275L11.1389 0.0524221C10.7292 -0.0641914 10.2983 0.0157575 9.95734 0.272236C9.61635 0.528714 9.42065 0.919692 9.42065 1.34501V1.82613V3.25697V14.7806C9.42065 15.3801 9.82424 15.9124 10.4009 16.075L12.1428 16.5692L16.2806 17.7432C16.4033 17.7784 16.5286 17.7956 16.6533 17.7956C16.9186 17.7956 17.1805 17.7171 17.4058 17.5652C17.7378 17.3416 17.9516 16.9862 17.9939 16.5751C17.9943 16.5711 17.9941 16.5668 17.9945 16.5627C17.9973 16.5259 17.9998 16.4871 17.9998 16.4509L18 3.01713ZM10.8556 14.716V2.5369V1.45966L16.565 3.08062L16.5652 16.3358L10.8556 14.716Z" fill="white"/>
</svg>
