<svg width="84" height="16" viewBox="0 0 84 16" fill="none" xmlns="http://www.w3.org/2000/svg">
<path d="M3.22275 0L16.4826 12.8361L13.2717 15.9444L0.0118715 3.10827L3.22275 0Z" fill="#ED1C24"/>
<path d="M13.3055 0.0493144L26.5654 12.8854L23.3545 15.9937L10.0947 3.15759L13.3055 0.0493144Z" fill="white"/>
<path d="M10.0948 12.8854L23.3547 0.0493145L26.5655 3.15759L13.3057 15.9937L10.0948 12.8854Z" fill="#FFF200"/>
<path d="M0 12.8629L13.2598 0.0267778L16.4707 3.13505L3.21087 15.9712L0 12.8629Z" fill="#92278F"/>
<path d="M10.0604 3.12403L13.271 0.0159577L16.4819 3.12423L13.2712 6.2323L10.0604 3.12403Z" fill="white"/>
<path d="M5.03597 7.99479L8.24664 4.88672L11.4575 7.99499L8.24685 11.1031L5.03597 7.99479Z" fill="#972F35"/>
<path d="M15.1204 8.02186L18.331 4.91379L21.5417 8.02186L18.331 11.1299L15.1204 8.02186Z" fill="white"/>
<path d="M10.0948 12.8919L13.3055 9.78386L16.5162 12.8919L13.3055 16L10.0948 12.8919Z" fill="#CF810C"/>
<path d="M3.22275 0L16.4826 12.8361L13.2717 15.9444L0.0118715 3.10827L3.22275 0Z" fill="white"/>
<path d="M13.3055 0.0493144L26.5654 12.8854L23.3545 15.9937L10.0947 3.15759L13.3055 0.0493144Z" fill="white"/>
<path d="M10.0948 12.8854L23.3547 0.0493145L26.5655 3.15759L13.3057 15.9937L10.0948 12.8854Z" fill="white"/>
<path d="M0 12.8629L13.2598 0.0267778L16.4707 3.13505L3.21087 15.9712L0 12.8629Z" fill="white"/>
<path d="M10.0604 3.12403L13.271 0.0159577L16.4819 3.12423L13.2712 6.2323L10.0604 3.12403Z" fill="white"/>
<path d="M5.03597 7.99479L8.24664 4.88672L11.4575 7.99499L8.24685 11.1031L5.03597 7.99479Z" fill="white"/>
<path d="M15.1204 8.02186L18.331 4.91379L21.5417 8.02186L18.331 11.1299L15.1204 8.02186Z" fill="white"/>
<path d="M10.0948 12.8919L13.3055 9.78386L16.5162 12.8919L13.3055 16L10.0948 12.8919Z" fill="white"/>
<path d="M34.3329 7.08368L33.6972 4.36238L32.5164 6.6961C32.3738 6.97647 32.1992 7.15102 31.9127 7.15102C31.6261 7.15102 31.4515 6.97785 31.3089 6.6961L30.1348 4.36238L29.499 7.08368H28.3276L29.4231 2.65676C29.507 2.32278 29.7016 2.1551 30.0068 2.1551C30.26 2.1551 30.4733 2.30903 30.5972 2.5633L31.9526 5.30521L33.3014 2.5633C33.424 2.30903 33.6133 2.1551 33.8651 2.1551C34.1504 2.1551 34.3383 2.32278 34.4222 2.65676L35.5111 7.08368H34.3303H34.3329Z" fill="white"/>
<path d="M36.8934 7.08571V3.45152H35.2061V2.22041H39.7806V3.45152H38.1V7.08571H36.8934Z" fill="white"/>
<path d="M40.2211 7.08571V2.22041H43.0213C44.3831 2.22041 45.3715 3.19127 45.3715 4.60218C45.3715 6.01309 44.3831 7.08434 43.0213 7.08434H40.2211V7.08571ZM43.0213 5.84807C43.689 5.84807 44.1839 5.35989 44.1839 4.66406C44.1839 3.96823 43.689 3.45255 43.0213 3.45255H41.4034V5.84807H43.0213Z" fill="white"/>
<path d="M30.0148 13.4857V9.87591H28.3276V8.65306H32.902V9.87591H31.2214V13.4857H30.0148Z" fill="white"/>
<path d="M33.3099 13.4857V8.65306H37.7015V9.87557H34.5137V12.255H37.7136V13.4843H33.3086L33.3099 13.4857ZM35.0961 11.4915V10.5681H37.5172V11.4915H35.0961Z" fill="white"/>
<path d="M40.5449 13.4857C39.1663 13.4857 38.1541 12.4214 38.1541 11.0195C38.1541 9.61768 39.1663 8.65306 40.5449 8.65306H43.2029V9.87591H40.5449C39.8657 9.87591 39.3623 10.3883 39.3623 11.0796C39.3623 11.771 39.8522 12.256 40.5449 12.256H43.2029V13.4857H40.5449Z" fill="white"/>
<path d="M43.7451 13.4843V8.65306H44.9527V13.4843H43.7451ZM47.3491 11.5507H45.5269V10.5143H47.3491V8.65443H48.5567V13.4857H47.3491V11.5507Z" fill="white"/>
<path d="M50.3823 10.5867V13.4841H49.2344V9.31142C49.2344 8.8663 49.4691 8.58775 49.8352 8.58775C50.0109 8.58775 50.1356 8.64783 50.2978 8.80076L53.1691 11.492V8.59458H54.3171V12.8274C54.3171 13.2725 54.0757 13.551 53.7163 13.551C53.5406 13.551 53.4092 13.4909 53.2536 13.338L50.3823 10.5867Z" fill="white"/>
<path d="M57.2558 13.4857C55.8738 13.4857 54.8592 12.4214 54.8592 11.0195C54.8592 9.61768 55.8738 8.65306 57.2558 8.65306H58.4535C59.8745 8.65306 60.8568 9.61768 60.8568 11.0195C60.8568 12.4214 59.8489 13.4857 58.4535 13.4857H57.2558ZM58.4535 12.256C59.1613 12.256 59.6524 11.7642 59.6524 11.0796C59.6524 10.3951 59.1545 9.87591 58.4535 9.87591H57.2558C56.5749 9.87591 56.0703 10.3883 56.0703 11.0796C56.0703 11.771 56.5615 12.256 57.2558 12.256H58.4535Z" fill="white"/>
<path d="M61.4003 13.4857V8.65306H62.6103V12.255H65.5668V13.4843H61.399L61.4003 13.4857Z" fill="white"/>
<path d="M68.2683 13.4857C66.8863 13.4857 65.8717 12.4214 65.8717 11.0195C65.8717 9.61768 66.8863 8.65306 68.2683 8.65306H69.466C70.887 8.65306 71.8693 9.61768 71.8693 11.0195C71.8693 12.4214 70.8614 13.4857 69.466 13.4857H68.2683ZM69.466 12.256C70.1738 12.256 70.6649 11.7642 70.6649 11.0796C70.6649 10.3951 70.1671 9.87591 69.466 9.87591H68.2683C67.5874 9.87591 67.0828 10.3883 67.0828 11.0796C67.0828 11.771 67.574 12.256 68.2683 12.256H69.466Z" fill="white"/>
<path d="M74.6687 13.4857C73.2889 13.4857 72.2759 12.4214 72.2759 11.0195C72.2759 9.61768 73.2889 8.65306 74.6687 8.65306H77.3288V9.87591H74.6687C73.9889 9.87591 73.4851 10.3883 73.4851 11.0796C73.4851 11.771 73.9754 12.256 74.6687 12.256H76.4206V11.4909H74.5504V10.5673H77.6297V13.4857H74.6687Z" fill="white"/>
<path d="M80.3643 13.4857V11.8106L77.9346 8.65306H79.5504L81.0095 10.6875L82.4753 8.65306H84L81.5637 11.8106V13.4857H80.3643Z" fill="white"/>
</svg>
