<svg width="149" height="192" viewBox="0 0 149 192" fill="none" xmlns="http://www.w3.org/2000/svg">
<path d="M69.366 75.3019C81.4225 75.3019 91.1963 63.5268 91.1963 49.0015C91.1963 34.4762 81.4225 22.7012 69.366 22.7012C57.3094 22.7012 47.5356 34.4762 47.5356 49.0015C47.5356 63.5268 57.3094 75.3019 69.366 75.3019Z" fill="#14A155" fill-opacity="0.16"/>
<path d="M97.259 19.1768C101.655 19.1768 105.218 14.8839 105.218 9.58838C105.218 4.29286 101.655 0 97.259 0C92.8635 0 89.3003 4.29286 89.3003 9.58838C89.3003 14.8839 92.8635 19.1768 97.259 19.1768Z" fill="#14A155" fill-opacity="0.16"/>
<path d="M140.529 192H8.43414C7.16384 192 6.50824 190.62 6.96425 188.939L12.6836 167.85C13.0607 166.459 14.284 165.344 15.42 165.344H133.543C134.679 165.344 135.902 166.459 136.279 167.85L141.999 188.939C142.454 190.62 141.799 192 140.529 192Z" fill="#14A155" fill-opacity="0.16"/>
<path d="M130.78 65.0854H18.1825L3.50537 100.45H145.457L130.78 65.0854Z" fill="#2E373F"/>
<path opacity="0.7" d="M18.1825 65.0854V100.45H3.50537L18.1825 65.0854Z" fill="#333F49"/>
<path opacity="0.7" d="M130.78 65.0854V100.45H145.457L130.78 65.0854Z" fill="#333F49"/>
<path d="M143.786 181.633H5.17631C2.31753 181.633 0 178.841 0 175.397V104.152C0 100.708 2.31753 97.9155 5.17631 97.9155H143.786C146.645 97.9155 148.962 100.708 148.962 104.152V175.397C148.962 178.841 146.645 181.633 143.786 181.633Z" fill="#007A78"/>
<path opacity="0.3" d="M104.037 152.882H50.1477C48.5514 152.882 47.0243 150.987 46.7368 148.65L45.1491 135.738C44.8616 133.4 45.9226 131.505 47.5189 131.505C49.1153 131.505 50.6424 133.4 50.9298 135.738L51.9971 144.417H100.106L99.0383 135.738C98.7508 133.4 99.8118 131.505 101.408 131.505C103.005 131.505 104.532 133.4 104.819 135.738L106.407 148.65C106.694 150.987 105.633 152.882 104.037 152.882Z" fill="#023A39"/>
<path d="M101.426 148.568H47.5364C45.9401 148.568 44.646 147.009 44.646 145.086V134.463C44.646 132.54 45.9401 130.981 47.5364 130.981C49.1328 130.981 50.4269 132.54 50.4269 134.463V141.603H98.5353V134.463C98.5353 132.54 99.8294 130.981 101.426 130.981C103.022 130.981 104.316 132.54 104.316 134.463V145.086C104.316 147.009 103.022 148.568 101.426 148.568Z" fill="white"/>
<path d="M131.575 32.1673L131.437 32.2078C130.537 32.4724 129.621 31.8015 129.401 30.7167L126.87 18.2187C126.651 17.1339 127.207 16.0298 128.108 15.7652L128.246 15.7247C129.146 15.4601 130.063 16.131 130.282 17.2158L132.813 29.7138C133.033 30.7986 132.476 31.9027 131.575 32.1673Z" fill="#34C759"/>
<path d="M39.3705 86.0158C39.1865 86.0158 39.0057 85.9103 38.8935 85.7138C38.7127 85.3968 38.7793 84.9632 39.0424 84.7454C39.9785 83.9701 40.9096 83.147 41.8101 82.2991C42.0617 82.0624 42.425 82.1159 42.6216 82.4189C42.8182 82.722 42.7736 83.1598 42.5221 83.3966C41.6032 84.2619 40.6529 85.1018 39.6974 85.8932C39.5974 85.9761 39.4833 86.0158 39.3705 86.0158ZM44.8331 80.8735C44.6731 80.8735 44.5139 80.794 44.3997 80.6381C44.1883 80.3499 44.211 79.9097 44.4503 79.6551C45.3022 78.7486 46.1449 77.7966 46.9552 76.8258C47.1816 76.5545 47.5476 76.5557 47.7727 76.8284C47.9978 77.1011 47.9969 77.5421 47.7705 77.8133C46.9441 78.8036 46.0846 79.7744 45.2156 80.6991C45.1057 80.8161 44.9691 80.8735 44.8331 80.8735ZM49.7486 74.984C49.6114 74.984 49.4738 74.9256 49.3635 74.8067C49.1255 74.5503 49.1051 74.1101 49.3179 73.8234C50.0771 72.8002 50.822 71.7359 51.5317 70.66C51.7304 70.359 52.094 70.3088 52.344 70.5481C52.5939 70.7874 52.6355 71.2255 52.4369 71.5267C51.7133 72.6236 50.9539 73.7087 50.1797 74.7518C50.0656 74.9057 49.9074 74.984 49.7486 74.984ZM54.0622 68.4453C53.9472 68.4453 53.831 68.404 53.7298 68.318C53.4688 68.0965 53.4063 67.662 53.5902 67.3476C54.2467 66.225 54.8849 65.0643 55.4869 63.8976C55.6554 63.5709 56.0119 63.4708 56.283 63.6738C56.5541 63.877 56.6373 64.3063 56.4687 64.633C55.8551 65.8222 55.2046 67.0055 54.5353 68.1499C54.4227 68.3424 54.2439 68.4453 54.0622 68.4453ZM57.7225 61.3512C57.6291 61.3512 57.5344 61.3239 57.4466 61.2663C57.1662 61.0824 57.0626 60.6595 57.2152 60.3217C57.7609 59.1137 58.2836 57.8722 58.7688 56.6315C58.9049 56.2836 59.2493 56.1344 59.5381 56.2984C59.8268 56.4623 59.9507 56.8773 59.8146 57.2252C59.3199 58.4902 58.787 59.756 58.2306 60.9876C58.1258 61.2197 57.9273 61.3512 57.7225 61.3512ZM60.6772 53.795C60.6056 53.795 60.5327 53.7788 60.4621 53.7447C60.1658 53.6014 60.022 53.1959 60.1409 52.8389C60.5662 51.5621 60.9646 50.2558 61.325 48.9559C61.4261 48.5911 61.7536 48.394 62.0564 48.516C62.3592 48.6379 62.5227 49.0323 62.4216 49.3972C62.054 50.723 61.6477 52.0556 61.2139 53.3578C61.1233 53.6296 60.9064 53.795 60.6772 53.795ZM81.4331 46.7947C81.118 46.7947 80.8601 46.4898 80.8553 46.1088C80.8505 45.7242 81.1053 45.4077 81.4245 45.4019C82.5669 45.381 83.7255 45.3327 84.8683 45.2584C85.1856 45.2372 85.4595 45.5321 85.4768 45.9163C85.494 46.3003 85.2495 46.6284 84.9307 46.6493C83.7731 46.7246 82.5993 46.7735 81.4421 46.7947C81.4391 46.7947 81.4361 46.7947 81.4331 46.7947ZM77.9654 46.7767C77.9608 46.7767 77.9561 46.7767 77.9514 46.7766C76.7923 46.7434 75.6189 46.6821 74.4638 46.5943C74.1451 46.5702 73.9031 46.2393 73.9232 45.8555C73.9433 45.4716 74.2173 45.1798 74.5365 45.2042C75.6766 45.2908 76.8348 45.3512 77.9789 45.384C78.298 45.3931 78.5506 45.7122 78.543 46.0968C78.5356 46.4757 78.2783 46.7767 77.9654 46.7767ZM88.3578 46.3442C88.0626 46.3442 87.8107 46.0733 87.7828 45.7122C87.7533 45.3292 87.9871 44.9899 88.305 44.9543C89.4431 44.827 90.5953 44.6709 91.7295 44.4907C92.0464 44.4399 92.3364 44.7087 92.3782 45.09C92.42 45.4713 92.1973 45.8213 91.8807 45.8716C90.7319 46.0543 89.5649 46.2123 88.4119 46.3412C88.3937 46.3433 88.3756 46.3442 88.3578 46.3442ZM71.0445 46.2506C71.0247 46.2506 71.0048 46.2493 70.9847 46.2469C69.8306 46.1039 68.6648 45.9312 67.5195 45.7333C67.2035 45.6788 66.984 45.3258 67.0293 44.9451C67.0746 44.5644 67.3673 44.3002 67.6836 44.3545C68.8137 44.5497 69.9641 44.7201 71.103 44.8613C71.4205 44.9006 71.6515 45.2426 71.6189 45.6253C71.5882 45.9837 71.3372 46.2506 71.0445 46.2506ZM62.8726 45.8724C62.823 45.8724 62.7727 45.8647 62.7225 45.8485C62.4141 45.7489 62.2312 45.367 62.3139 44.9955C62.339 44.8828 62.3639 44.7698 62.3885 44.6567C61.8072 44.5128 61.2275 44.3618 60.6538 44.2047C60.3425 44.1195 60.1475 43.7463 60.2182 43.3712C60.2889 42.9962 60.5988 42.7612 60.91 42.8464C61.4922 43.0058 62.0808 43.1589 62.6709 43.3046C62.7757 42.7801 62.8752 42.2551 62.9687 41.7325C63.014 41.4791 63.0581 41.2252 63.101 40.9708C63.1645 40.5938 63.4697 40.3502 63.7826 40.4268C64.0955 40.5034 64.2977 40.871 64.2341 41.248C64.1902 41.5078 64.1452 41.7673 64.0989 42.0261C64.0067 42.5411 63.9089 43.0584 63.8059 43.5752C63.9653 43.6118 64.1247 43.6478 64.2838 43.6832C64.5978 43.7531 64.8052 44.1164 64.7473 44.4946C64.6893 44.8728 64.3879 45.1227 64.0738 45.053C63.8909 45.0123 63.7078 44.9707 63.5245 44.9285C63.4935 45.0713 63.4622 45.214 63.4305 45.3563C63.3614 45.6673 63.1279 45.8724 62.8726 45.8724ZM95.2335 45.2512C94.9571 45.2512 94.7127 45.0116 94.6644 44.6724C94.6104 44.2932 94.8218 43.9332 95.1364 43.8682C96.264 43.6353 97.4027 43.3726 98.5209 43.0875C98.8334 43.0083 99.1401 43.2485 99.2061 43.6247C99.2722 44.001 99.0726 44.3706 98.7603 44.4502C97.6275 44.7389 96.474 45.005 95.3319 45.241C95.2988 45.2479 95.2659 45.2512 95.2335 45.2512ZM102.019 43.5214C101.76 43.5214 101.525 43.311 101.459 42.9953C101.381 42.6223 101.568 42.2437 101.878 42.1496C102.987 41.8119 104.106 41.4435 105.201 41.0548C105.508 40.9461 105.829 41.1572 105.919 41.5262C106.009 41.8951 105.834 42.2823 105.528 42.391C104.418 42.7849 103.285 43.158 102.161 43.5001C102.113 43.5145 102.066 43.5214 102.019 43.5214ZM57.4168 43.2126C57.3667 43.2126 57.3159 43.2047 57.2652 43.1881C56.1439 42.822 55.0165 42.4232 53.9142 42.0029C53.6098 41.8869 53.4411 41.4956 53.5375 41.1288C53.6338 40.7621 53.9585 40.5591 54.263 40.6749C55.35 41.0894 56.4618 41.4826 57.5676 41.8437C57.8758 41.9444 58.0578 42.327 57.9743 42.6982C57.9046 43.0084 57.6714 43.2126 57.4168 43.2126ZM108.672 41.1605C108.431 41.1605 108.206 40.9774 108.124 40.6867C108.022 40.3224 108.184 39.9271 108.487 39.804C109.572 39.3623 110.663 38.8892 111.728 38.398C112.027 38.2604 112.361 38.4403 112.475 38.7995C112.589 39.1588 112.44 39.5614 112.142 39.6988C111.062 40.1966 109.957 40.676 108.857 41.1236C108.796 41.1486 108.733 41.1605 108.672 41.1605ZM50.8077 40.6802C50.7404 40.6802 50.6719 40.6659 50.6052 40.6359C49.4346 40.1081 48.3738 39.5765 47.3623 39.0109C47.0727 38.849 46.9469 38.4348 47.0812 38.086C47.2156 37.7371 47.5593 37.5857 47.8489 37.7474C48.8336 38.298 49.8677 38.816 51.0104 39.3313C51.3094 39.4661 51.461 39.8674 51.3491 40.2277C51.2622 40.5074 51.0419 40.6802 50.8077 40.6802ZM115.149 38.1742C114.925 38.1742 114.712 38.0162 114.618 37.7523C114.492 37.3989 114.627 36.9894 114.921 36.8376C115.973 36.2936 117.028 35.7169 118.058 35.1238C118.346 34.958 118.691 35.1047 118.829 35.4517C118.967 35.7987 118.845 36.2145 118.557 36.3804C117.513 36.9817 116.443 37.5662 115.377 38.1176C115.303 38.156 115.225 38.1742 115.149 38.1742ZM64.2404 37.6852C64.2156 37.6852 64.1905 37.6833 64.1653 37.6793C63.8487 37.6299 63.6253 37.2805 63.6664 36.8991C63.8169 35.5013 63.9173 34.1211 63.9649 32.797C63.9787 32.4127 64.2475 32.1149 64.5675 32.1314C64.8865 32.148 65.1338 32.4731 65.12 32.8574C65.071 34.221 64.9676 35.6413 64.813 37.0783C64.7752 37.4293 64.5266 37.6852 64.2404 37.6852ZM44.5371 37.1309C44.4361 37.1309 44.3338 37.099 44.2408 37.032C43.1909 36.275 42.21 35.4583 41.3253 34.6046C41.0761 34.3641 41.0359 33.9258 41.2356 33.6256C41.4352 33.3254 41.7991 33.2771 42.0482 33.5175C42.892 34.3319 43.8295 35.1122 44.8345 35.8367C45.1085 36.0343 45.1977 36.4619 45.0338 36.792C44.9255 37.01 44.7337 37.1309 44.5371 37.1309ZM121.406 34.5696C121.198 34.5696 120.998 34.4349 120.894 34.1989C120.745 33.859 120.852 33.4375 121.135 33.2575C122.147 32.6117 123.159 31.933 124.144 31.2402C124.42 31.0462 124.774 31.1583 124.935 31.4905C125.096 31.8226 125.003 32.2491 124.727 32.443C123.729 33.1455 122.702 33.8336 121.676 34.4884C121.589 34.5435 121.497 34.5696 121.406 34.5696ZM39.1672 31.894C39.0081 31.894 38.8497 31.8153 38.7354 31.661C37.9459 30.5938 37.2422 29.4147 36.644 28.1566C36.4852 27.8229 36.5812 27.3973 36.8582 27.2061C37.1353 27.0149 37.4885 27.1305 37.6471 27.4642C38.2057 28.6387 38.8622 29.7389 39.5985 30.7343C39.8109 31.0214 39.7899 31.4616 39.5516 31.7175C39.4414 31.8358 39.304 31.894 39.1672 31.894ZM64.52 29.3468C64.2163 29.3468 63.9616 29.0613 63.9435 28.6914C63.8752 27.2982 63.7411 25.9309 63.5448 24.6275C63.4878 24.249 63.6963 23.8865 64.0104 23.8178C64.3246 23.7496 64.6255 24.0004 64.6824 24.3788C64.887 25.7371 65.0266 27.1605 65.0976 28.6093C65.1164 28.9932 64.8733 29.3229 64.5546 29.3456C64.5431 29.3464 64.5315 29.3468 64.52 29.3468ZM35.7463 24.6915C35.5015 24.6915 35.2742 24.5026 35.1958 24.2067C34.8205 22.7909 34.5885 21.3595 34.5063 19.9524C34.4839 19.5687 34.7239 19.2357 35.0424 19.2088C35.3618 19.1802 35.6372 19.4709 35.6597 19.8545C35.7354 21.1511 35.9499 22.4727 36.2972 23.783C36.3943 24.1493 36.2265 24.5413 35.9223 24.6582C35.8638 24.6808 35.8046 24.6915 35.7463 24.6915ZM63.266 21.1514C63.0231 21.1514 62.7969 20.9655 62.7169 20.6723C62.3671 19.3906 61.9268 18.131 61.4082 16.9286C61.2609 16.5872 61.3714 16.1668 61.6546 15.9894C61.9378 15.8122 62.2869 15.945 62.4341 16.2863C62.9813 17.5551 63.446 18.8844 63.8152 20.2372C63.915 20.6026 63.7498 20.9962 63.4466 21.1163C63.3867 21.1401 63.3259 21.1514 63.266 21.1514ZM35.3182 16.4456C35.2774 16.4456 35.2361 16.4403 35.1946 16.4295C34.8827 16.3477 34.6848 15.9767 34.7527 15.6008C34.9388 14.5705 35.2196 13.5736 35.5873 12.6376C35.7365 12.2577 35.9035 11.8814 36.0835 11.5192C36.2476 11.1892 36.6026 11.082 36.8764 11.2794C37.1504 11.477 37.2395 11.9047 37.0755 12.2348C36.9146 12.5584 36.7655 12.8944 36.6323 13.2336C36.3022 14.0739 36.0498 14.9702 35.8823 15.8972C35.8236 16.2231 35.5842 16.4456 35.3182 16.4456ZM60.0782 13.7694C59.9025 13.7694 59.7291 13.6735 59.6155 13.4913C58.931 12.3936 58.1751 11.3805 57.3687 10.4803C57.1346 10.2188 57.1206 9.77809 57.3377 9.49597C57.5546 9.21395 57.9203 9.19708 58.1546 9.45854C59.0115 10.4152 59.8139 11.4905 60.5398 12.6545C60.7316 12.962 60.6802 13.3986 60.4249 13.6296C60.3209 13.7239 60.199 13.7694 60.0782 13.7694ZM38.8106 9.3981C38.6484 9.3981 38.4871 9.3163 38.3728 9.15675C38.1642 8.86558 38.1909 8.42585 38.4325 8.17449C39.3288 7.24213 40.3528 6.44999 41.476 5.82022C41.7654 5.65777 42.1093 5.80907 42.244 6.15778C42.3787 6.50649 42.2532 6.92074 41.9638 7.08302C40.9373 7.6585 40.0035 8.38043 39.1881 9.22871C39.0789 9.3424 38.9444 9.3981 38.8106 9.3981ZM55.0019 8.14611C54.8997 8.14611 54.7962 8.11342 54.7024 8.04481C53.7363 7.33798 52.7202 6.76954 51.6822 6.35537C51.3791 6.23439 51.2148 5.84043 51.3151 5.47529C51.4155 5.11015 51.7426 4.9122 52.0456 5.0331C53.1662 5.48021 54.262 6.09294 55.3025 6.85424C55.5754 7.05394 55.6622 7.48225 55.4966 7.81102C55.3878 8.0268 55.1972 8.14611 55.0019 8.14611ZM45.0142 5.87663C44.7419 5.87663 44.4994 5.64381 44.4468 5.30959C44.3875 4.93171 44.5936 4.56727 44.9073 4.49575C46.0937 4.22524 47.3155 4.13008 48.5015 4.21425C48.8202 4.23683 49.0634 4.56648 49.0446 4.95042C49.0257 5.33445 48.7512 5.62667 48.4335 5.60471C47.3419 5.52748 46.216 5.61499 45.1224 5.86442C45.086 5.87268 45.0499 5.87663 45.0142 5.87663Z" fill="#808181"/>
<path d="M123 25.8887L123.034 26.0548C123.253 27.1396 124.17 27.8106 125.07 27.5459L135.444 24.497C136.344 24.2323 136.901 23.1283 136.682 22.0435L136.648 21.8775C136.428 20.7927 135.512 20.1217 134.612 20.3863L124.238 23.4353C123.337 23.6999 122.78 24.804 123 25.8887Z" fill="#007A78"/>
<path d="M98.1922 82.6334C98.9514 82.3375 99.1534 80.5575 98.6433 78.6578C98.1332 76.758 97.1042 75.4579 96.345 75.7538C95.5857 76.0497 95.3837 77.8296 95.8938 79.7293C96.4039 81.6291 97.4329 82.9293 98.1922 82.6334Z" fill="#34C759"/>
<path d="M100.679 81.7609C102.065 80.6658 102.833 79.1264 102.396 78.3225C101.958 77.5186 100.48 77.7547 99.0941 78.8499C97.7084 79.945 96.9398 81.4844 97.3774 82.2883C97.8151 83.0922 99.2933 82.8561 100.679 81.7609Z" fill="#007A78"/>
<path d="M42.5375 52.5909C42.6111 51.6337 41.333 50.7085 39.6829 50.5244C38.0328 50.3404 36.6355 50.9671 36.5619 51.9243C36.4884 52.8815 37.7664 53.8067 39.4165 53.9908C41.0666 54.1749 42.4639 53.5481 42.5375 52.5909Z" fill="#34C759"/>
<path d="M41.963 53.361C42.7487 53.1933 43.1514 51.4636 42.8624 49.4976C42.5734 47.5316 41.7021 46.0737 40.9164 46.2414C40.1306 46.409 39.728 48.1387 40.017 50.1047C40.306 52.0708 41.1773 53.5286 41.963 53.361Z" fill="#007A78"/>
</svg>
