<svg width="34" height="34" viewBox="0 0 34 34" fill="none" xmlns="http://www.w3.org/2000/svg">
<path d="M17 34C14.6556 34 12.4556 33.5556 10.4 32.6667C8.34444 31.7889 6.53889 30.5722 4.98333 29.0167C3.42778 27.45 2.20556 25.6444 1.31667 23.6C0.438889 21.5444 0 19.3444 0 17C0 14.6556 0.438889 12.4556 1.31667 10.4C2.20556 8.34444 3.42778 6.53889 4.98333 4.98333C6.53889 3.42778 8.34444 2.21111 10.4 1.33333C12.4556 0.444444 14.6556 0 17 0C19.3444 0 21.5444 0.444444 23.6 1.33333C25.6556 2.21111 27.4611 3.42778 29.0167 4.98333C30.5722 6.53889 31.7889 8.34444 32.6667 10.4C33.5556 12.4556 34 14.6556 34 17C34 19.3444 33.5556 21.5444 32.6667 23.6C31.7889 25.6444 30.5722 27.45 29.0167 29.0167C27.4611 30.5722 25.6556 31.7889 23.6 32.6667C21.5444 33.5556 19.3444 34 17 34ZM8.86667 17.0167C8.86667 17.4389 9.00556 17.7833 9.28333 18.05C9.56111 18.3056 9.91667 18.4333 10.35 18.4333H15.5667V23.6667C15.5667 24.1 15.6944 24.4556 15.95 24.7333C16.2167 25 16.5611 25.1333 16.9833 25.1333C17.4167 25.1333 17.7667 25 18.0333 24.7333C18.3111 24.4556 18.45 24.1 18.45 23.6667V18.4333H23.6833C24.1056 18.4333 24.4556 18.3056 24.7333 18.05C25.0111 17.7833 25.15 17.4389 25.15 17.0167C25.15 16.5833 25.0111 16.2333 24.7333 15.9667C24.4667 15.6889 24.1167 15.55 23.6833 15.55H18.45V10.3333C18.45 9.9 18.3111 9.54445 18.0333 9.26667C17.7667 8.98889 17.4167 8.85 16.9833 8.85C16.5611 8.85 16.2167 8.98889 15.95 9.26667C15.6944 9.54445 15.5667 9.9 15.5667 10.3333V15.55H10.35C9.91667 15.55 9.56111 15.6889 9.28333 15.9667C9.00556 16.2333 8.86667 16.5833 8.86667 17.0167Z" fill="#007A78"/>
</svg>
