<svg width="15" height="15" viewBox="0 0 15 15" fill="none" xmlns="http://www.w3.org/2000/svg">
<path fill-rule="evenodd" clip-rule="evenodd" d="M7.5 0C8.98336 0 10.4334 0.439867 11.6668 1.26398C12.9001 2.08809 13.8614 3.25943 14.4291 4.62987C14.9968 6.00032 15.1453 7.50832 14.8559 8.96318C14.5665 10.418 13.8522 11.7544 12.8033 12.8033C11.7544 13.8522 10.418 14.5665 8.96318 14.8559C7.50832 15.1453 6.00032 14.9968 4.62987 14.4291C3.25943 13.8614 2.08809 12.9001 1.26398 11.6668C0.439867 10.4334 0 8.98336 0 7.5C0.000927925 5.51116 0.791402 3.60405 2.19772 2.19772C3.60404 0.791402 5.51116 0.000927476 7.5 0ZM7.5 11.926C8.31121 11.926 9.10318 11.6789 9.77052 11.2177C10.4379 10.7565 10.9489 10.103 11.2357 9.34414C11.5224 8.5853 11.5713 7.75713 11.3757 6.96984C11.1802 6.18255 10.7495 5.47348 10.141 4.937L9.4795 5.687C9.97367 6.12302 10.3101 6.70995 10.4366 7.35673C10.5631 8.0035 10.4727 8.67394 10.1792 9.26403C9.88575 9.85412 9.40574 10.3309 8.81365 10.6203C8.22157 10.9097 7.55052 10.9956 6.90463 10.8646C6.25874 10.7337 5.67412 10.3932 5.2415 9.89608C4.80887 9.39893 4.55243 8.77289 4.51195 8.11511C4.47148 7.45732 4.64924 6.80457 5.01765 6.25813C5.38607 5.7117 5.92453 5.30214 6.5495 5.093L6.3045 5.719L7.2355 6.0835L8.093 3.8925L5.9 3.0345L5.5355 3.9655L6.1045 4.1885C5.22694 4.51556 4.49219 5.14057 4.02864 5.95432C3.56508 6.76807 3.40218 7.71883 3.56841 8.64049C3.73463 9.56215 4.21941 10.3961 4.93805 10.9966C5.65668 11.5972 6.56347 11.9261 7.5 11.926Z" fill="#007A78"/>
</svg>
