<svg width="10" height="10" viewBox="0 0 10 10" fill="none" xmlns="http://www.w3.org/2000/svg">
<g clip-path="url(#clip0_452_3591)">
<path d="M0.918859 2.91187L1.55265 2.27808C1.88956 1.94116 2.2255 1.60522 2.56241 1.26831C2.63859 1.19214 2.71573 1.11499 2.79191 1.03882C2.60734 1.03882 2.42374 1.03882 2.23917 1.03882C2.45011 1.24976 2.66202 1.46167 2.87296 1.67261C3.20987 2.00952 3.54581 2.34546 3.88273 2.68237L4.11222 2.91187C4.25675 3.0564 4.52237 3.06714 4.66495 2.91187C4.80851 2.75562 4.81925 2.51343 4.66495 2.35913C4.45402 2.14819 4.2421 1.93628 4.03116 1.72534C3.69425 1.38843 3.35831 1.05249 3.0214 0.715576C2.94523 0.639404 2.86808 0.562256 2.79191 0.486084C2.64249 0.33667 2.38859 0.33667 2.23917 0.486084C2.02823 0.697022 1.81632 0.908936 1.60538 1.11987C1.26945 1.45679 0.932531 1.7937 0.596594 2.12964C0.520422 2.20581 0.443273 2.28296 0.367101 2.35913C0.22257 2.50366 0.211828 2.76929 0.367101 2.91187C0.522375 3.05444 0.764562 3.06616 0.918859 2.91187Z" fill="#333F49"/>
<path d="M2.12592 0.762557V0.989119V1.60435V2.51939V3.6317V4.84947V6.07896V7.22935V8.1981V8.89439C2.12592 9.00474 2.12495 9.11412 2.12592 9.22447V9.23912C2.12592 9.44322 2.30561 9.63951 2.51655 9.62974C2.72846 9.61998 2.90717 9.45787 2.90717 9.23912C2.90717 9.16392 2.90717 9.08873 2.90717 9.01256C2.90717 8.80748 2.90717 8.6024 2.90717 8.39732C2.90717 8.09263 2.90717 7.78795 2.90717 7.48228C2.90717 7.11119 2.90717 6.74107 2.90717 6.36998C2.90717 5.96373 2.90717 5.55845 2.90717 5.1522C2.90717 4.74205 2.90717 4.33287 2.90717 3.92271C2.90717 3.53892 2.90717 3.15513 2.90717 2.77232C2.90717 2.44908 2.90717 2.12681 2.90717 1.80357C2.90717 1.57115 2.90717 1.33971 2.90717 1.10728C2.90717 0.996932 2.90815 0.887557 2.90717 0.777205C2.90717 0.772322 2.90717 0.76744 2.90717 0.762557C2.90717 0.558455 2.72749 0.362166 2.51655 0.371932C2.30463 0.381697 2.12592 0.543807 2.12592 0.762557Z" fill="#333F49"/>
<path d="M4.02525 4.80355H4.55553H5.82799H7.36803H8.70006C8.91588 4.80355 9.13267 4.80648 9.34849 4.80355H9.35826C9.56236 4.80355 9.75865 4.62386 9.74888 4.41292C9.73912 4.20101 9.57701 4.0223 9.35826 4.0223C9.1815 4.0223 9.00474 4.0223 8.82799 4.0223C8.40416 4.0223 7.97935 4.0223 7.55553 4.0223C7.04185 4.0223 6.52916 4.0223 6.01549 4.0223C5.57115 4.0223 5.12779 4.0223 4.68346 4.0223C4.46763 4.0223 4.25084 4.01937 4.03502 4.0223C4.03209 4.0223 4.02916 4.0223 4.02525 4.0223C3.82115 4.0223 3.62486 4.20199 3.63463 4.41292C3.64342 4.62484 3.80553 4.80355 4.02525 4.80355Z" fill="#333F49"/>
<path d="M7.79478 6.00472C7.67076 6.00472 7.54576 6.00472 7.42174 6.00472C7.12096 6.00472 6.82017 6.00472 6.51939 6.00472C6.15709 6.00472 5.79478 6.00472 5.43248 6.00472C5.11803 6.00472 4.80357 6.00472 4.48912 6.00472C4.33678 6.00472 4.18443 6.00179 4.03209 6.00472C4.03013 6.00472 4.02818 6.00472 4.02525 6.00472C3.82115 6.00472 3.62486 6.18441 3.63463 6.39535C3.64439 6.60726 3.8065 6.78597 4.02525 6.78597H4.3983H5.30064H6.38756H7.33092C7.48326 6.78597 7.6356 6.7889 7.78795 6.78597H7.79478C7.99889 6.78597 8.19517 6.60628 8.18541 6.39535C8.17564 6.18343 8.01353 6.00472 7.79478 6.00472Z" fill="#333F49"/>
<path d="M6.23228 7.9873C5.98228 7.9873 5.73326 7.9873 5.48326 7.9873C5.08873 7.9873 4.6942 7.9873 4.29967 7.9873C4.20787 7.9873 4.11607 7.9873 4.02525 7.9873C3.82115 7.9873 3.62486 8.16699 3.63463 8.37793C3.64439 8.58984 3.8065 8.76855 4.02525 8.76855H4.77428H5.95787H6.23228C6.43638 8.76855 6.63267 8.58887 6.62291 8.37793C6.61314 8.16602 6.45103 7.9873 6.23228 7.9873Z" fill="#333F49"/>
</g>
<defs>
<clipPath id="clip0_452_3591">
<rect width="10" height="10" fill="white"/>
</clipPath>
</defs>
</svg>
