<svg width="15" height="15" viewBox="0 0 15 15" fill="none" xmlns="http://www.w3.org/2000/svg">
<g clip-path="url(#clip0_429_4529)">
<path d="M6.30005 4.7998H4.80005V9.9268C4.80053 10.3173 4.95587 10.6917 5.23201 10.9678C5.50814 11.244 5.88253 11.3993 6.27305 11.3998H8.72705C9.11757 11.3993 9.49195 11.244 9.76809 10.9678C10.0442 10.6917 10.1996 10.3173 10.2 9.9268V4.7998H6.30005ZM6.90005 9.5998C6.90005 9.67937 6.86844 9.75568 6.81218 9.81194C6.75592 9.8682 6.67961 9.8998 6.60005 9.8998C6.52048 9.8998 6.44418 9.8682 6.38792 9.81194C6.33166 9.75568 6.30005 9.67937 6.30005 9.5998V6.5998C6.30005 6.52024 6.33166 6.44393 6.38792 6.38767C6.44418 6.33141 6.52048 6.2998 6.60005 6.2998C6.67961 6.2998 6.75592 6.33141 6.81218 6.38767C6.86844 6.44393 6.90005 6.52024 6.90005 6.5998V9.5998ZM8.70005 9.5998C8.70005 9.67937 8.66844 9.75568 8.61218 9.81194C8.55592 9.8682 8.47961 9.8998 8.40005 9.8998C8.32048 9.8998 8.24418 9.8682 8.18792 9.81194C8.13166 9.75568 8.10005 9.67937 8.10005 9.5998V6.5998C8.10005 6.52024 8.13166 6.44393 8.18792 6.38767C8.24418 6.33141 8.32048 6.2998 8.40005 6.2998C8.47961 6.2998 8.55592 6.33141 8.61218 6.38767C8.66844 6.44393 8.70005 6.52024 8.70005 6.5998V9.5998Z" fill="#007A78"/>
<path d="M7.50007 3.6001C7.31399 3.60032 7.13253 3.65811 6.98058 3.76553C6.82864 3.87295 6.71364 4.02475 6.65137 4.2001H8.34877C8.28649 4.02475 8.1715 3.87295 8.01955 3.76553C7.86761 3.65811 7.68615 3.60032 7.50007 3.6001Z" fill="#007A78"/>
<path d="M7.50005 0.299805C6.07603 0.299805 4.68398 0.722077 3.49995 1.51322C2.31591 2.30437 1.39307 3.42886 0.848119 4.74448C0.303168 6.06011 0.160584 7.50779 0.438398 8.90446C0.716212 10.3011 1.40195 11.584 2.40888 12.591C3.41582 13.5979 4.69874 14.2836 6.0954 14.5615C7.49207 14.8393 8.93974 14.6967 10.2554 14.1517C11.571 13.6068 12.6955 12.6839 13.4866 11.4999C14.2778 10.3159 14.7001 8.92383 14.7001 7.4998C14.6978 5.59093 13.9385 3.76087 12.5888 2.41109C11.239 1.06131 9.40893 0.302028 7.50005 0.299805ZM11.1001 4.7998H10.8001V9.92681C10.7994 10.4764 10.5808 11.0033 10.1922 11.3919C9.80356 11.7806 9.27665 11.9992 8.72705 11.9998H6.27305C5.72345 11.9992 5.19655 11.7806 4.80792 11.3919C4.4193 11.0033 4.20069 10.4764 4.20005 9.92681V4.7998H3.90005C3.82049 4.7998 3.74418 4.7682 3.68792 4.71194C3.63166 4.65568 3.60005 4.57937 3.60005 4.4998C3.60005 4.42024 3.63166 4.34393 3.68792 4.28767C3.74418 4.23141 3.82049 4.1998 3.90005 4.1998H6.03005C6.09891 3.86072 6.28287 3.55586 6.55078 3.33689C6.81868 3.11792 7.15405 2.9983 7.50005 2.9983C7.84606 2.9983 8.18143 3.11792 8.44933 3.33689C8.71723 3.55586 8.9012 3.86072 8.97005 4.1998H11.1001C11.1796 4.1998 11.2559 4.23141 11.3122 4.28767C11.3684 4.34393 11.4001 4.42024 11.4001 4.4998C11.4001 4.57937 11.3684 4.65568 11.3122 4.71194C11.2559 4.7682 11.1796 4.7998 11.1001 4.7998Z" fill="#007A78"/>
</g>
<defs>
<clipPath id="clip0_429_4529">
<rect width="15" height="15" fill="white"/>
</clipPath>
</defs>
</svg>
