<svg width="15" height="15" viewBox="0 0 15 15" fill="none" xmlns="http://www.w3.org/2000/svg">
<path d="M7.5 0C3.36328 0 0 3.36328 0 7.5C0 11.6367 3.36328 15 7.5 15C11.6367 15 15 11.6367 15 7.5C15 3.36328 11.6367 0 7.5 0ZM9.8877 10.7959C9.8877 11.0537 9.67676 11.2646 9.41895 11.2646H5.58105C5.32324 11.2646 5.1123 11.0537 5.1123 10.7959C5.1123 10.5381 5.32324 10.3271 5.58105 10.3271H9.41895C9.67969 10.3271 9.8877 10.5381 9.8877 10.7959ZM5.25 6.4541C5.06543 6.27246 5.06543 5.97363 5.25 5.79199L7.16895 3.87305C7.25684 3.78516 7.37695 3.73535 7.5 3.73535C7.62305 3.73535 7.74316 3.78516 7.83105 3.87305L9.75 5.79199C9.93164 5.97363 9.93164 6.27246 9.75 6.4541C9.56836 6.63574 9.26953 6.63574 9.08789 6.4541L7.96875 5.33496V9.41016C7.96875 9.66797 7.75781 9.87891 7.5 9.87891C7.24219 9.87891 7.03125 9.66797 7.03125 9.41016V5.33496L5.91211 6.4541C5.82129 6.54492 5.70117 6.5918 5.58105 6.5918C5.46094 6.5918 5.34082 6.54492 5.25 6.4541Z" fill="#007A78"/>
</svg>
