<svg width="49" height="48" viewBox="0 0 49 48" fill="none" xmlns="http://www.w3.org/2000/svg">
<path d="M46.1584 14.6903C44.9495 11.8322 43.2193 9.26572 41.0157 7.06216C38.8121 4.8586 36.2457 3.12835 33.3876 1.91947C30.4276 0.667519 27.2844 0.0327148 24.0452 0.0327148C20.8059 0.0327148 17.6627 0.667498 14.7028 1.91947C11.8447 3.12835 9.27819 4.8586 7.07461 7.06218C4.87104 9.26574 3.1408 11.8322 1.93192 14.6903C0.67997 17.6503 0.045166 20.7935 0.045166 24.0327C0.045166 27.272 0.679949 30.4152 1.93192 33.3751C3.1408 36.2332 4.87104 38.7997 7.07461 41.0033C7.56625 41.4949 8.07609 41.9628 8.60308 42.4069L9.10279 40.7483C9.52565 39.1053 10.2145 37.5516 11.1501 36.1304C12.0696 34.7336 13.2032 33.5009 14.5194 32.4667C15.0035 32.0863 15.5075 31.7368 16.0293 31.4188C17.0327 32.3423 18.1755 33.0785 19.433 33.6104C20.8951 34.2288 22.4469 34.5424 24.0452 34.5424C25.6435 34.5424 27.1953 34.2288 28.6574 33.6104C29.9149 33.0785 31.0576 32.3423 32.061 31.4188C32.5829 31.7368 33.0869 32.0863 33.5709 32.4667C34.8871 33.5009 36.0207 34.7336 36.9403 36.1304C37.8759 37.5516 38.5647 39.1053 38.9876 40.7483L39.4363 42.4494C39.9814 41.9927 40.5083 41.5107 41.0157 41.0033C43.2193 38.7997 44.9495 36.2332 46.1584 33.3751C47.4104 30.4152 48.0452 27.272 48.0452 24.0327C48.0452 20.7935 47.4104 17.6503 46.1584 14.6903ZM30.3961 30.5396C30.2687 30.482 30.1404 30.4261 30.0114 30.372C30.1404 30.4261 30.2687 30.482 30.3961 30.5396ZM18.0791 30.372C17.95 30.4261 17.8217 30.482 17.6943 30.5396C17.8217 30.482 17.95 30.4261 18.0791 30.372ZM17.0772 30.8354C17.059 30.8446 17.0409 30.8539 17.0227 30.8632C17.0409 30.8539 17.059 30.8446 17.0772 30.8354ZM16.8803 30.937C16.8641 30.9455 16.8479 30.9539 16.8318 30.9625C16.8479 30.9539 16.8641 30.9455 16.8803 30.937ZM16.6457 31.0626C16.6401 31.0656 16.6346 31.0687 16.6291 31.0718C16.6346 31.0687 16.6401 31.0656 16.6457 31.0626Z" fill="#007A78"/>
<path d="M31.8975 19.3253C31.4657 18.3044 30.8479 17.388 30.0613 16.6013C29.2746 15.8147 28.3581 15.1969 27.3373 14.7651C26.2795 14.3177 25.1567 14.0908 24.0004 14.0908C22.844 14.0908 21.7213 14.3177 20.6635 14.7651C19.6426 15.1969 18.7261 15.8147 17.9395 16.6013C17.1528 17.388 16.535 18.3045 16.1032 19.3253C15.6558 20.3832 15.429 21.5058 15.429 22.6622C15.429 23.8186 15.6558 24.9413 16.1032 25.9992C16.5351 27.02 17.1528 27.9365 17.9395 28.7232C18.7261 29.5098 19.6426 30.1276 20.6635 30.5594C21.7213 31.0068 22.844 31.2337 24.0004 31.2337C25.1567 31.2337 26.2794 31.0068 27.3373 30.5594C28.3582 30.1276 29.2746 29.5098 30.0613 28.7232C30.8479 27.9365 31.4657 27.02 31.8975 25.9992C32.3449 24.9413 32.5718 23.8186 32.5718 22.6622C32.5718 21.5059 32.3449 20.3832 31.8975 19.3253Z" fill="white"/>
<path d="M39.3796 40.4238C38.9567 38.7808 38.2679 37.2271 37.3323 35.8059C36.4128 34.409 35.2791 33.1764 33.963 32.1421C33.4789 31.7618 32.975 31.4122 32.4531 31.0943C31.4497 32.0177 30.3069 32.754 29.0494 33.2858C27.5873 33.9043 26.0355 34.2178 24.4372 34.2178C22.8389 34.2178 21.2871 33.9043 19.825 33.2858C18.5675 32.7539 17.4247 32.0177 16.4213 31.0942C15.8994 31.4122 15.3955 31.7618 14.9115 32.1421C13.5953 33.1764 12.4617 34.409 11.5421 35.8059C10.6065 37.2271 9.91769 38.7808 9.49483 40.4238L8.99512 42.0823C9.23962 42.2883 9.48797 42.4889 9.73983 42.6845C11.3782 43.9567 13.1702 45.0075 15.0948 45.8215C18.0547 47.0734 21.198 47.7082 24.4372 47.7082C27.6764 47.7082 30.8197 47.0734 33.7796 45.8215C35.8626 44.9405 37.7904 43.7822 39.536 42.366C39.634 42.2864 39.7314 42.2061 39.8283 42.1249L39.3796 40.4238Z" fill="white"/>
</svg>
