<svg width="63" height="29" viewBox="0 0 63 29" fill="none" xmlns="http://www.w3.org/2000/svg">
<path d="M20.1143 4.047C19.4988 4.58686 18.9221 5.17055 18.3892 5.79209C20.9719 8.38682 22.8356 12.3462 23.4621 16.93H25.9463C25.4452 12.89 24.0587 9.15976 21.9192 6.18454C21.3554 5.40064 20.7508 4.68746 20.1143 4.047Z" fill="white"/>
<path d="M17.0873 7.52319C16.6102 8.24832 16.1858 9.01131 15.8213 9.80815C17.2994 11.6519 18.3881 14.1231 18.8842 16.931H21.3773C20.9062 13.9139 19.8195 11.1359 18.1989 8.8858C17.8463 8.39773 17.4747 7.94353 17.0873 7.52319Z" fill="white"/>
<path d="M14.2754 16.931H16.7765C16.4159 15.2208 15.7894 13.6301 14.9228 12.2525C14.5005 13.7386 14.2754 15.3084 14.2754 16.931Z" fill="white"/>
<path d="M41.4163 3.03001C41.0926 2.79593 40.7599 2.57381 40.4193 2.36265C40.2639 2.52501 40.1105 2.68836 39.9591 2.8557C37.968 5.06595 35.7129 8.45056 34.5186 13.2107C34.1531 11.2903 33.6381 9.43466 32.9837 7.67064C34.2796 4.76913 35.8902 2.527 37.3733 0.869558C36.9739 0.721145 36.5675 0.586678 36.1542 0.467151C34.8802 1.94829 33.5415 3.83681 32.3851 6.17058C31.5514 4.23325 30.5404 2.42341 29.363 0.782901C29.1708 0.514961 28.9756 0.254991 28.7773 0C27.867 0.140444 26.9805 0.353599 26.1229 0.6315C28.1787 3.01009 29.8551 6.02615 31.0035 9.46355C30.5812 10.6767 30.2147 11.9786 29.9278 13.3771C29.119 9.68666 27.6638 6.30007 25.6418 3.48421C25.1248 2.76406 24.579 2.09371 24.0092 1.47516C23.2452 1.84171 22.5121 2.26304 21.8169 2.73318C25.066 6.02316 27.3679 11.0911 28.0184 16.931H30.5912C30.7834 14.9518 31.136 13.138 31.6042 11.4845C32.0574 13.2187 32.3821 15.0425 32.5604 16.931H35.0455C35.7806 10.5433 38.4999 6.24229 40.8376 3.64657C41.0289 3.43341 41.2221 3.22822 41.4163 3.03001Z" fill="white"/>
<path d="M44.6433 6.05903C44.3903 5.75125 44.1264 5.45343 43.8535 5.16357C41.2139 7.86787 39.0066 11.7913 38.3184 16.93H39.5126C40.2178 11.9418 42.3843 8.55217 44.2559 6.47439C44.3834 6.33195 44.5128 6.1945 44.6433 6.05903Z" fill="white"/>
<path d="M42.8008 16.931H44C44.5648 13.8393 45.8378 11.5732 47.0759 10.0104C46.8996 9.61199 46.7083 9.22054 46.5041 8.83905C44.7849 10.8491 43.3795 13.5464 42.8008 16.931Z" fill="white"/>
<path d="M48.282 15.2676C48.018 15.7696 47.7999 16.3234 47.6475 16.931H48.4264C48.4264 16.3642 48.3766 15.8094 48.282 15.2676Z" fill="white"/>
<path d="M30.2504 20.2947H28.4595V28.2691H33.374V26.6963H30.2504" fill="white"/>
<path d="M43.2798 20.2947H42.6323V28.2691H46.9134V27.6874H43.2798" fill="white"/>
<path d="M47.6606 28.2691H48.3081V20.2947H47.6606V28.2691Z" fill="white"/>
<path d="M58.7837 27.6874V24.4682H62.3077V23.8984H58.7837V20.8764H62.5717V20.2947H58.1362V28.2691H62.7032V27.6874" fill="white"/>
<path d="M55.9717 27.6874H55.8402L51.2215 20.2947H50.0571V28.2691H50.7026V20.8764H50.86L55.4787 28.2691H56.6182V20.2947H55.9727" fill="white"/>
<path d="M8.08998 26.6963H7.95651L6.64271 20.5138H4.77909L3.60573 26.6963H3.43242L1.83374 20.2947H0L1.96622 28.2691H4.71335L5.70044 23.4123L6.76423 28.2691H9.56614L11.3132 20.2947H9.47152" fill="white"/>
<path d="M40.3211 21.4093C39.4715 20.5776 38.3559 20.226 37.077 20.23H34.1177V28.314H37.077C37.7981 28.314 38.4276 28.2034 38.9665 27.9813C39.9825 27.5709 40.7544 26.797 41.1349 25.8129C41.3471 25.272 41.4198 24.7112 41.4028 24.1415C41.4009 23.1185 41.0532 22.1334 40.3211 21.4093ZM39.3679 25.3417C39.1408 25.9324 38.7225 26.3517 38.1278 26.5758C37.829 26.6884 37.4903 26.7452 37.1118 26.7452H35.9086V21.7968H37.1118C37.4903 21.7968 37.829 21.8476 38.1278 21.9501C38.7234 22.1514 39.1408 22.5697 39.3679 23.1524C39.591 23.7699 39.596 24.7142 39.3679 25.3417Z" fill="white"/>
<path d="M17.4529 20.4092C16.434 19.9351 14.7695 19.9361 13.7556 20.4092C12.7446 20.8545 11.9876 21.6653 11.615 22.6703C11.4029 23.2321 11.3312 23.7998 11.3481 24.3805C11.362 25.9065 12.2794 27.4454 13.7237 28.1058C14.7486 28.6158 16.4678 28.6158 17.4918 28.1058C18.9351 27.4464 19.8534 25.9065 19.8674 24.3805C19.9132 23.2888 19.5427 22.1723 18.7866 21.3545C18.4291 20.9611 17.9848 20.6463 17.4529 20.4092ZM15.6122 26.8567C14.0942 26.8567 13.2217 25.6624 13.2217 24.2759C13.2217 22.8376 14.0394 21.6951 15.6122 21.6951C16.9449 21.6951 18.0028 22.6145 18.0028 24.2759C18.0028 25.6704 17.1133 26.8567 15.6122 26.8567Z" fill="white"/>
<path d="M26.765 24.5498C27.0618 24.1345 27.1863 23.5179 27.1634 22.9054C27.1634 22.3157 27.0319 21.8226 26.77 21.4252C26.1494 20.5088 25.0707 20.2379 23.9193 20.2289H20.7847V28.2691H22.5756V25.7999C22.6104 25.7999 23.8944 25.8009 23.9322 25.7999L25.6225 28.2691H27.6973L25.6604 25.4134C26.1345 25.2212 26.503 24.9333 26.765 24.5498ZM25.1345 23.6982C24.8994 24.1106 24.499 24.3068 24.0089 24.3048H22.5756V21.7977H24.0089C24.2709 21.7977 24.497 21.8017 24.6862 21.9073C24.8755 22.0129 25.0249 22.1623 25.1345 22.3555C25.3486 22.7211 25.3556 23.3237 25.1345 23.6982Z" fill="white"/>
</svg>
